M48
; DRILL file KiCad 10.0.3 date 2026-06-04T15:17:19
; FORMAT={-:-/ absolute / metric / decimal}
; #@! TF.CreationDate,2026-06-04T15:17:19-04:00
; #@! TF.GenerationSoftware,Kicad,Pcbnew,10.0.3
; #@! TF.FileFunction,Plated,1,2,PTH
FMAT,2
METRIC
; #@! TA.AperFunction,Plated,PTH,ComponentDrill
T1C0.800
; #@! TA.AperFunction,Plated,PTH,ComponentDrill
T2C1.000
; #@! TA.AperFunction,Plated,PTH,ComponentDrill
T3C1.500
%
G90
G05
T1
X100.5Y-54.19
X100.5Y-61.81
X100.595Y-73.19
X100.595Y-80.81
X100.595Y-92.19
X100.595Y-99.81
X119.5Y-54.19
X119.5Y-61.81
X119.595Y-73.19
X119.595Y-80.81
X119.595Y-92.19
X119.595Y-99.81
X138.0Y-54.19
X138.0Y-61.81
X138.0Y-73.19
X138.0Y-80.81
X138.0Y-92.19
X138.0Y-99.81
T2
X72.0Y-30.1
X72.0Y-32.6
X72.0Y-35.1
X86.5Y-30.1
X86.5Y-35.1
X91.875Y-25.38
X91.875Y-27.92
X91.875Y-30.46
X91.875Y-33.0
X91.875Y-35.54
X91.875Y-38.08
X91.875Y-40.62
X107.125Y-25.38
X107.125Y-27.92
X107.125Y-30.46
X107.125Y-33.0
X107.125Y-35.54
X107.125Y-38.08
X107.125Y-40.62
X112.5Y-28.69
X112.5Y-31.23
X112.5Y-33.77
X112.5Y-36.31
T3
X87.095Y-51.0
X87.15Y-69.96
X87.285Y-88.96
X93.445Y-48.46
X93.5Y-67.42
X93.635Y-86.42
X106.285Y-51.0
X106.285Y-69.96
X106.365Y-88.96
X112.635Y-48.46
X112.635Y-67.42
X112.715Y-86.42
X125.205Y-69.96
X125.285Y-51.0
X125.285Y-88.96
X131.555Y-67.42
X131.635Y-48.46
X131.635Y-86.42
T3
G00X78.85Y-27.0
M15
G01X80.15Y-27.0
M16
G05
G00X78.85Y-38.2
M15
G01X80.15Y-38.2
M16
G05
M30
