M48
; DRILL file KiCad 10.0.3 date 2026-06-04T15:17:19
; FORMAT={-:-/ absolute / metric / decimal}
; #@! TF.CreationDate,2026-06-04T15:17:19-04:00
; #@! TF.GenerationSoftware,Kicad,Pcbnew,10.0.3
; #@! TF.FileFunction,NonPlated,1,2,NPTH
FMAT,2
METRIC
; #@! TA.AperFunction,NonPlated,NPTH,ComponentDrill
T1C1.700
; #@! TA.AperFunction,NonPlated,NPTH,ComponentDrill
T2C2.500
; #@! TA.AperFunction,NonPlated,NPTH,ComponentDrill
T3C4.000
%
G90
G05
T1
X85.825Y-53.54
X85.88Y-72.5
X86.015Y-91.5
X95.985Y-53.54
X96.04Y-72.5
X96.175Y-91.5
X105.015Y-53.54
X105.015Y-72.5
X105.095Y-91.5
X115.175Y-53.54
X115.175Y-72.5
X115.255Y-91.5
X123.935Y-72.5
X124.015Y-53.54
X124.015Y-91.5
X134.095Y-72.5
X134.175Y-53.54
X134.175Y-91.5
T2
X64.0Y-26.5
X65.0Y-107.5
X155.0Y-107.5
X156.0Y-27.5
T3
X90.905Y-53.54
X90.96Y-72.5
X91.095Y-91.5
X110.095Y-53.54
X110.095Y-72.5
X110.175Y-91.5
X129.015Y-72.5
X129.095Y-53.54
X129.095Y-91.5
M30
