%TF.GenerationSoftware,KiCad,Pcbnew,10.0.3*%
%TF.CreationDate,2026-06-04T15:17:13-04:00*%
%TF.ProjectId,PCB,5043422e-6b69-4636-9164-5f7063625858,rev?*%
%TF.SameCoordinates,Original*%
%TF.FileFunction,Profile,NP*%
%FSLAX46Y46*%
G04 Gerber Fmt 4.6, Leading zero omitted, Abs format (unit mm)*
G04 Created by KiCad (PCBNEW 10.0.3) date 2026-06-04 15:17:13*
%MOMM*%
%LPD*%
G01*
G04 APERTURE LIST*
%TA.AperFunction,Profile*%
%ADD10C,0.050000*%
%TD*%
%TA.AperFunction,Profile*%
%ADD11C,0.120000*%
%TD*%
G04 APERTURE END LIST*
D10*
X60000000Y-22500000D02*
X160000000Y-22500000D01*
X160000000Y-111904999D01*
X60000000Y-111904999D01*
X60000000Y-22500000D01*
%TO.C,D16*%
D11*
X127395000Y-96000000D02*
X127395000Y-95299647D01*
X127395000Y-96000000D02*
X127395000Y-96700353D01*
X129095000Y-94500000D02*
X128194647Y-94500000D01*
X129095000Y-94500000D02*
X129995353Y-94500000D01*
X129095000Y-97500000D02*
X128194647Y-97500000D01*
X129095000Y-97500000D02*
X129995353Y-97500000D01*
X130795000Y-96000000D02*
X130795000Y-95299647D01*
X130795000Y-96000000D02*
X130795000Y-96700353D01*
X127351066Y-95143345D02*
G75*
G02*
X127395000Y-95299647I-256065J-156301D01*
G01*
X127351066Y-95143345D02*
G75*
G02*
X128038345Y-94456066I426776J260503D01*
G01*
X127395000Y-96700353D02*
G75*
G02*
X127351066Y-96856655I-299999J-1D01*
G01*
X128038345Y-97543934D02*
G75*
G02*
X127351066Y-96856655I-260503J426776D01*
G01*
X128038345Y-97543934D02*
G75*
G02*
X128194647Y-97500000I156301J-256065D01*
G01*
X128194647Y-94500000D02*
G75*
G02*
X128038345Y-94456066I-1J299999D01*
G01*
X129995353Y-97500000D02*
G75*
G02*
X130151654Y-97543935I-3J-300000D01*
G01*
X130151655Y-94456066D02*
G75*
G02*
X129995353Y-94500002I-156305J256066D01*
G01*
X130151655Y-94456066D02*
G75*
G02*
X130838934Y-95143345I260505J-426774D01*
G01*
X130795000Y-95299647D02*
G75*
G02*
X130838935Y-95143346I300000J-3D01*
G01*
X130838934Y-96856655D02*
G75*
G02*
X130151655Y-97543934I-426776J-260503D01*
G01*
X130838934Y-96856655D02*
G75*
G02*
X130795024Y-96700353I256066J156255D01*
G01*
%TO.C,D17*%
X112338934Y-96856655D02*
G75*
G02*
X112295000Y-96700353I256065J156301D01*
G01*
X112338934Y-96856655D02*
G75*
G02*
X111651655Y-97543934I-426776J-260503D01*
G01*
X112295000Y-95299647D02*
G75*
G02*
X112338934Y-95143345I299999J1D01*
G01*
X111651655Y-94456066D02*
G75*
G02*
X112338934Y-95143345I260503J-426776D01*
G01*
X111651655Y-94456066D02*
G75*
G02*
X111495353Y-94500000I-156301J256065D01*
G01*
X111495353Y-97500000D02*
G75*
G02*
X111651655Y-97543934I1J-299999D01*
G01*
X109694647Y-94500000D02*
G75*
G02*
X109538346Y-94456065I3J300000D01*
G01*
X109538345Y-97543934D02*
G75*
G02*
X109694647Y-97499998I156305J-256066D01*
G01*
X109538345Y-97543934D02*
G75*
G02*
X108851066Y-96856655I-260505J426774D01*
G01*
X108895000Y-96700353D02*
G75*
G02*
X108851065Y-96856654I-300000J3D01*
G01*
X108851066Y-95143345D02*
G75*
G02*
X109538345Y-94456066I426776J260503D01*
G01*
X108851066Y-95143345D02*
G75*
G02*
X108894976Y-95299647I-256066J-156255D01*
G01*
X112295000Y-96000000D02*
X112295000Y-96700353D01*
X112295000Y-96000000D02*
X112295000Y-95299647D01*
X110595000Y-97500000D02*
X111495353Y-97500000D01*
X110595000Y-97500000D02*
X109694647Y-97500000D01*
X110595000Y-94500000D02*
X111495353Y-94500000D01*
X110595000Y-94500000D02*
X109694647Y-94500000D01*
X108895000Y-96000000D02*
X108895000Y-96700353D01*
X108895000Y-96000000D02*
X108895000Y-95299647D01*
%TO.C,D18*%
X92743934Y-96856655D02*
G75*
G02*
X92700024Y-96700353I256066J156255D01*
G01*
X92743934Y-96856655D02*
G75*
G02*
X92056655Y-97543934I-426776J-260503D01*
G01*
X92700000Y-95299647D02*
G75*
G02*
X92743935Y-95143346I300000J-3D01*
G01*
X92056655Y-94456066D02*
G75*
G02*
X92743934Y-95143345I260505J-426774D01*
G01*
X92056655Y-94456066D02*
G75*
G02*
X91900353Y-94500002I-156305J256066D01*
G01*
X91900353Y-97500000D02*
G75*
G02*
X92056654Y-97543935I-3J-300000D01*
G01*
X90099647Y-94500000D02*
G75*
G02*
X89943345Y-94456066I-1J299999D01*
G01*
X89943345Y-97543934D02*
G75*
G02*
X90099647Y-97500000I156301J-256065D01*
G01*
X89943345Y-97543934D02*
G75*
G02*
X89256066Y-96856655I-260503J426776D01*
G01*
X89300000Y-96700353D02*
G75*
G02*
X89256066Y-96856655I-299999J-1D01*
G01*
X89256066Y-95143345D02*
G75*
G02*
X89943345Y-94456066I426776J260503D01*
G01*
X89256066Y-95143345D02*
G75*
G02*
X89300000Y-95299647I-256065J-156301D01*
G01*
X92700000Y-96000000D02*
X92700000Y-96700353D01*
X92700000Y-96000000D02*
X92700000Y-95299647D01*
X91000000Y-97500000D02*
X91900353Y-97500000D01*
X91000000Y-97500000D02*
X90099647Y-97500000D01*
X91000000Y-94500000D02*
X91900353Y-94500000D01*
X91000000Y-94500000D02*
X90099647Y-94500000D01*
X89300000Y-96000000D02*
X89300000Y-96700353D01*
X89300000Y-96000000D02*
X89300000Y-95299647D01*
%TO.C,D13*%
X130838934Y-77856655D02*
G75*
G02*
X130795024Y-77700353I256066J156255D01*
G01*
X130838934Y-77856655D02*
G75*
G02*
X130151655Y-78543934I-426776J-260503D01*
G01*
X130795000Y-76299647D02*
G75*
G02*
X130838935Y-76143346I300000J-3D01*
G01*
X130151655Y-75456066D02*
G75*
G02*
X130838934Y-76143345I260505J-426774D01*
G01*
X130151655Y-75456066D02*
G75*
G02*
X129995353Y-75500002I-156305J256066D01*
G01*
X129995353Y-78500000D02*
G75*
G02*
X130151654Y-78543935I-3J-300000D01*
G01*
X128194647Y-75500000D02*
G75*
G02*
X128038345Y-75456066I-1J299999D01*
G01*
X128038345Y-78543934D02*
G75*
G02*
X128194647Y-78500000I156301J-256065D01*
G01*
X128038345Y-78543934D02*
G75*
G02*
X127351066Y-77856655I-260503J426776D01*
G01*
X127395000Y-77700353D02*
G75*
G02*
X127351066Y-77856655I-299999J-1D01*
G01*
X127351066Y-76143345D02*
G75*
G02*
X128038345Y-75456066I426776J260503D01*
G01*
X127351066Y-76143345D02*
G75*
G02*
X127395000Y-76299647I-256065J-156301D01*
G01*
X130795000Y-77000000D02*
X130795000Y-77700353D01*
X130795000Y-77000000D02*
X130795000Y-76299647D01*
X129095000Y-78500000D02*
X129995353Y-78500000D01*
X129095000Y-78500000D02*
X128194647Y-78500000D01*
X129095000Y-75500000D02*
X129995353Y-75500000D01*
X129095000Y-75500000D02*
X128194647Y-75500000D01*
X127395000Y-77000000D02*
X127395000Y-77700353D01*
X127395000Y-77000000D02*
X127395000Y-76299647D01*
%TO.C,D14*%
X112200000Y-77000000D02*
X112200000Y-77700353D01*
X112200000Y-77000000D02*
X112200000Y-76299647D01*
X110500000Y-78500000D02*
X111400353Y-78500000D01*
X110500000Y-78500000D02*
X109599647Y-78500000D01*
X110500000Y-75500000D02*
X111400353Y-75500000D01*
X110500000Y-75500000D02*
X109599647Y-75500000D01*
X108800000Y-77000000D02*
X108800000Y-77700353D01*
X108800000Y-77000000D02*
X108800000Y-76299647D01*
X112243934Y-77856655D02*
G75*
G02*
X112200000Y-77700353I256065J156301D01*
G01*
X112243934Y-77856655D02*
G75*
G02*
X111556655Y-78543934I-426776J-260503D01*
G01*
X112200000Y-76299647D02*
G75*
G02*
X112243934Y-76143345I299999J1D01*
G01*
X111556655Y-75456066D02*
G75*
G02*
X112243934Y-76143345I260503J-426776D01*
G01*
X111556655Y-75456066D02*
G75*
G02*
X111400353Y-75500000I-156301J256065D01*
G01*
X111400353Y-78500000D02*
G75*
G02*
X111556655Y-78543934I1J-299999D01*
G01*
X109599647Y-75500000D02*
G75*
G02*
X109443346Y-75456065I3J300000D01*
G01*
X109443345Y-78543934D02*
G75*
G02*
X109599647Y-78499998I156305J-256066D01*
G01*
X109443345Y-78543934D02*
G75*
G02*
X108756066Y-77856655I-260505J426774D01*
G01*
X108800000Y-77700353D02*
G75*
G02*
X108756065Y-77856654I-300000J3D01*
G01*
X108756066Y-76143345D02*
G75*
G02*
X109443345Y-75456066I426776J260503D01*
G01*
X108756066Y-76143345D02*
G75*
G02*
X108799976Y-76299647I-256066J-156255D01*
G01*
%TO.C,D15*%
X92743934Y-77856655D02*
G75*
G02*
X92700024Y-77700353I256066J156255D01*
G01*
X92743934Y-77856655D02*
G75*
G02*
X92056655Y-78543934I-426776J-260503D01*
G01*
X92700000Y-76299647D02*
G75*
G02*
X92743935Y-76143346I300000J-3D01*
G01*
X92056655Y-75456066D02*
G75*
G02*
X92743934Y-76143345I260505J-426774D01*
G01*
X92056655Y-75456066D02*
G75*
G02*
X91900353Y-75500002I-156305J256066D01*
G01*
X91900353Y-78500000D02*
G75*
G02*
X92056654Y-78543935I-3J-300000D01*
G01*
X90099647Y-75500000D02*
G75*
G02*
X89943345Y-75456066I-1J299999D01*
G01*
X89943345Y-78543934D02*
G75*
G02*
X90099647Y-78500000I156301J-256065D01*
G01*
X89943345Y-78543934D02*
G75*
G02*
X89256066Y-77856655I-260503J426776D01*
G01*
X89300000Y-77700353D02*
G75*
G02*
X89256066Y-77856655I-299999J-1D01*
G01*
X89256066Y-76143345D02*
G75*
G02*
X89943345Y-75456066I426776J260503D01*
G01*
X89256066Y-76143345D02*
G75*
G02*
X89300000Y-76299647I-256065J-156301D01*
G01*
X92700000Y-77000000D02*
X92700000Y-77700353D01*
X92700000Y-77000000D02*
X92700000Y-76299647D01*
X91000000Y-78500000D02*
X91900353Y-78500000D01*
X91000000Y-78500000D02*
X90099647Y-78500000D01*
X91000000Y-75500000D02*
X91900353Y-75500000D01*
X91000000Y-75500000D02*
X90099647Y-75500000D01*
X89300000Y-77000000D02*
X89300000Y-77700353D01*
X89300000Y-77000000D02*
X89300000Y-76299647D01*
%TO.C,D10*%
X130838934Y-58856655D02*
G75*
G02*
X130795024Y-58700353I256066J156255D01*
G01*
X130838934Y-58856655D02*
G75*
G02*
X130151655Y-59543934I-426776J-260503D01*
G01*
X130795000Y-57299647D02*
G75*
G02*
X130838935Y-57143346I300000J-3D01*
G01*
X130151655Y-56456066D02*
G75*
G02*
X130838934Y-57143345I260505J-426774D01*
G01*
X130151655Y-56456066D02*
G75*
G02*
X129995353Y-56500002I-156305J256066D01*
G01*
X129995353Y-59500000D02*
G75*
G02*
X130151654Y-59543935I-3J-300000D01*
G01*
X128194647Y-56500000D02*
G75*
G02*
X128038345Y-56456066I-1J299999D01*
G01*
X128038345Y-59543934D02*
G75*
G02*
X128194647Y-59500000I156301J-256065D01*
G01*
X128038345Y-59543934D02*
G75*
G02*
X127351066Y-58856655I-260503J426776D01*
G01*
X127395000Y-58700353D02*
G75*
G02*
X127351066Y-58856655I-299999J-1D01*
G01*
X127351066Y-57143345D02*
G75*
G02*
X128038345Y-56456066I426776J260503D01*
G01*
X127351066Y-57143345D02*
G75*
G02*
X127395000Y-57299647I-256065J-156301D01*
G01*
X130795000Y-58000000D02*
X130795000Y-58700353D01*
X130795000Y-58000000D02*
X130795000Y-57299647D01*
X129095000Y-59500000D02*
X129995353Y-59500000D01*
X129095000Y-59500000D02*
X128194647Y-59500000D01*
X129095000Y-56500000D02*
X129995353Y-56500000D01*
X129095000Y-56500000D02*
X128194647Y-56500000D01*
X127395000Y-58000000D02*
X127395000Y-58700353D01*
X127395000Y-58000000D02*
X127395000Y-57299647D01*
%TO.C,D11*%
X111838934Y-58856655D02*
G75*
G02*
X111795000Y-58700353I256065J156301D01*
G01*
X111838934Y-58856655D02*
G75*
G02*
X111151655Y-59543934I-426776J-260503D01*
G01*
X111795000Y-57299647D02*
G75*
G02*
X111838934Y-57143345I299999J1D01*
G01*
X111151655Y-56456066D02*
G75*
G02*
X111838934Y-57143345I260503J-426776D01*
G01*
X111151655Y-56456066D02*
G75*
G02*
X110995353Y-56500000I-156301J256065D01*
G01*
X110995353Y-59500000D02*
G75*
G02*
X111151655Y-59543934I1J-299999D01*
G01*
X109194647Y-56500000D02*
G75*
G02*
X109038346Y-56456065I3J300000D01*
G01*
X109038345Y-59543934D02*
G75*
G02*
X109194647Y-59499998I156305J-256066D01*
G01*
X109038345Y-59543934D02*
G75*
G02*
X108351066Y-58856655I-260505J426774D01*
G01*
X108395000Y-58700353D02*
G75*
G02*
X108351065Y-58856654I-300000J3D01*
G01*
X108351066Y-57143345D02*
G75*
G02*
X109038345Y-56456066I426776J260503D01*
G01*
X108351066Y-57143345D02*
G75*
G02*
X108394976Y-57299647I-256066J-156255D01*
G01*
X111795000Y-58000000D02*
X111795000Y-58700353D01*
X111795000Y-58000000D02*
X111795000Y-57299647D01*
X110095000Y-59500000D02*
X110995353Y-59500000D01*
X110095000Y-59500000D02*
X109194647Y-59500000D01*
X110095000Y-56500000D02*
X110995353Y-56500000D01*
X110095000Y-56500000D02*
X109194647Y-56500000D01*
X108395000Y-58000000D02*
X108395000Y-58700353D01*
X108395000Y-58000000D02*
X108395000Y-57299647D01*
%TO.C,D12*%
X89395000Y-58000000D02*
X89395000Y-57299647D01*
X89395000Y-58000000D02*
X89395000Y-58700353D01*
X91095000Y-56500000D02*
X90194647Y-56500000D01*
X91095000Y-56500000D02*
X91995353Y-56500000D01*
X91095000Y-59500000D02*
X90194647Y-59500000D01*
X91095000Y-59500000D02*
X91995353Y-59500000D01*
X92795000Y-58000000D02*
X92795000Y-57299647D01*
X92795000Y-58000000D02*
X92795000Y-58700353D01*
X89351066Y-57143345D02*
G75*
G02*
X89395000Y-57299647I-256065J-156301D01*
G01*
X89351066Y-57143345D02*
G75*
G02*
X90038345Y-56456066I426776J260503D01*
G01*
X89395000Y-58700353D02*
G75*
G02*
X89351066Y-58856655I-299999J-1D01*
G01*
X90038345Y-59543934D02*
G75*
G02*
X89351066Y-58856655I-260503J426776D01*
G01*
X90038345Y-59543934D02*
G75*
G02*
X90194647Y-59500000I156301J-256065D01*
G01*
X90194647Y-56500000D02*
G75*
G02*
X90038345Y-56456066I-1J299999D01*
G01*
X91995353Y-59500000D02*
G75*
G02*
X92151654Y-59543935I-3J-300000D01*
G01*
X92151655Y-56456066D02*
G75*
G02*
X91995353Y-56500002I-156305J256066D01*
G01*
X92151655Y-56456066D02*
G75*
G02*
X92838934Y-57143345I260505J-426774D01*
G01*
X92795000Y-57299647D02*
G75*
G02*
X92838935Y-57143346I300000J-3D01*
G01*
X92838934Y-58856655D02*
G75*
G02*
X92151655Y-59543934I-426776J-260503D01*
G01*
X92838934Y-58856655D02*
G75*
G02*
X92795024Y-58700353I256066J156255D01*
G01*
%TD*%
M02*
