%TF.GenerationSoftware,KiCad,Pcbnew,10.0.3*%
%TF.CreationDate,2026-06-04T15:17:12-04:00*%
%TF.ProjectId,PCB,5043422e-6b69-4636-9164-5f7063625858,rev?*%
%TF.SameCoordinates,Original*%
%TF.FileFunction,Copper,L1,Top*%
%TF.FilePolarity,Positive*%
%FSLAX46Y46*%
G04 Gerber Fmt 4.6, Leading zero omitted, Abs format (unit mm)*
G04 Created by KiCad (PCBNEW 10.0.3) date 2026-06-04 15:17:12*
%MOMM*%
%LPD*%
G01*
G04 APERTURE LIST*
G04 Aperture macros list*
%AMRoundRect*
0 Rectangle with rounded corners*
0 $1 Rounding radius*
0 $2 $3 $4 $5 $6 $7 $8 $9 X,Y pos of 4 corners*
0 Add a 4 corners polygon primitive as box body*
4,1,4,$2,$3,$4,$5,$6,$7,$8,$9,$2,$3,0*
0 Add four circle primitives for the rounded corners*
1,1,$1+$1,$2,$3*
1,1,$1+$1,$4,$5*
1,1,$1+$1,$6,$7*
1,1,$1+$1,$8,$9*
0 Add four rect primitives between the rounded corners*
20,1,$1+$1,$2,$3,$4,$5,0*
20,1,$1+$1,$4,$5,$6,$7,0*
20,1,$1+$1,$6,$7,$8,$9,0*
20,1,$1+$1,$8,$9,$2,$3,0*%
G04 Aperture macros list end*
%TA.AperFunction,SMDPad,CuDef*%
%ADD10RoundRect,0.205000X-0.470000X-0.205000X0.470000X-0.205000X0.470000X0.205000X-0.470000X0.205000X0*%
%TD*%
%TA.AperFunction,SMDPad,CuDef*%
%ADD11RoundRect,0.205000X0.470000X0.205000X-0.470000X0.205000X-0.470000X-0.205000X0.470000X-0.205000X0*%
%TD*%
%TA.AperFunction,ComponentPad*%
%ADD12C,2.200000*%
%TD*%
%TA.AperFunction,ComponentPad*%
%ADD13RoundRect,0.250000X0.550000X-0.550000X0.550000X0.550000X-0.550000X0.550000X-0.550000X-0.550000X0*%
%TD*%
%TA.AperFunction,ComponentPad*%
%ADD14C,1.600000*%
%TD*%
%TA.AperFunction,ComponentPad*%
%ADD15R,3.500000X1.700000*%
%TD*%
%TA.AperFunction,ComponentPad*%
%ADD16O,3.600000X1.700000*%
%TD*%
%TA.AperFunction,ComponentPad*%
%ADD17O,3.700000X1.700000*%
%TD*%
%TA.AperFunction,ComponentPad*%
%ADD18R,2.000000X2.000000*%
%TD*%
%TA.AperFunction,ComponentPad*%
%ADD19C,2.000000*%
%TD*%
%TA.AperFunction,ComponentPad*%
%ADD20R,3.200000X2.000000*%
%TD*%
%TA.AperFunction,ComponentPad*%
%ADD21RoundRect,0.170000X0.680000X-0.680000X0.680000X0.680000X-0.680000X0.680000X-0.680000X-0.680000X0*%
%TD*%
%TA.AperFunction,ComponentPad*%
%ADD22C,1.700000*%
%TD*%
%TA.AperFunction,Conductor*%
%ADD23C,0.200000*%
%TD*%
G04 APERTURE END LIST*
D10*
%TO.P,D16,1,VSS_1*%
%TO.N,Net-(D10-VSS)*%
X126370000Y-96750000D03*
%TO.P,D16,2,DIN_2*%
%TO.N,Net-(D13-DOUT)*%
X126370000Y-95250000D03*
%TO.P,D16,3,VDD_3*%
%TO.N,/5V*%
X131820000Y-95250000D03*
%TO.P,D16,4,DOUT_4*%
%TO.N,Net-(D16-DOUT)*%
X131820000Y-96750000D03*
%TD*%
D11*
%TO.P,D17,4,DOUT_4*%
%TO.N,Net-(D14-DIN)*%
X107870000Y-95250000D03*
%TO.P,D17,3,VDD_3*%
%TO.N,/5V*%
X107870000Y-96750000D03*
%TO.P,D17,2,DIN_2*%
%TO.N,Net-(D16-DOUT)*%
X113320000Y-96750000D03*
%TO.P,D17,1,VSS_1*%
%TO.N,Net-(D10-VSS)*%
X113320000Y-95250000D03*
%TD*%
D10*
%TO.P,D18,4,DOUT_4*%
%TO.N,unconnected-(D18-DOUT-Pad4)*%
X93725000Y-96750000D03*
%TO.P,D18,3,VDD_3*%
%TO.N,/5V*%
X93725000Y-95250000D03*
%TO.P,D18,2,DIN_2*%
%TO.N,Net-(D15-DOUT)*%
X88275000Y-95250000D03*
%TO.P,D18,1,VSS_1*%
%TO.N,Net-(D10-VSS)*%
X88275000Y-96750000D03*
%TD*%
%TO.P,D13,4,DOUT_4*%
%TO.N,Net-(D13-DOUT)*%
X131820000Y-77750000D03*
%TO.P,D13,3,VDD_3*%
%TO.N,/5V*%
X131820000Y-76250000D03*
%TO.P,D13,2,DIN_2*%
%TO.N,Net-(D10-DOUT)*%
X126370000Y-76250000D03*
%TO.P,D13,1,VSS_1*%
%TO.N,Net-(D10-VSS)*%
X126370000Y-77750000D03*
%TD*%
D11*
%TO.P,D14,1,VSS_1*%
%TO.N,Net-(D10-VSS)*%
X113225000Y-76250000D03*
%TO.P,D14,2,DIN_2*%
%TO.N,Net-(D14-DIN)*%
X113225000Y-77750000D03*
%TO.P,D14,3,VDD_3*%
%TO.N,/5V*%
X107775000Y-77750000D03*
%TO.P,D14,4,DOUT_4*%
%TO.N,Net-(D11-DIN)*%
X107775000Y-76250000D03*
%TD*%
D10*
%TO.P,D15,4,DOUT_4*%
%TO.N,Net-(D15-DOUT)*%
X93725000Y-77750000D03*
%TO.P,D15,3,VDD_3*%
%TO.N,/5V*%
X93725000Y-76250000D03*
%TO.P,D15,2,DIN_2*%
%TO.N,Net-(D12-DOUT)*%
X88275000Y-76250000D03*
%TO.P,D15,1,VSS_1*%
%TO.N,Net-(D10-VSS)*%
X88275000Y-77750000D03*
%TD*%
%TO.P,D10,4,DOUT_4*%
%TO.N,Net-(D10-DOUT)*%
X131820000Y-58750000D03*
%TO.P,D10,3,VDD_3*%
%TO.N,/5V*%
X131820000Y-57250000D03*
%TO.P,D10,2,DIN_2*%
%TO.N,Net-(D10-DIN)*%
X126370000Y-57250000D03*
%TO.P,D10,1,VSS_1*%
%TO.N,Net-(D10-VSS)*%
X126370000Y-58750000D03*
%TD*%
D11*
%TO.P,D11,4,DOUT_4*%
%TO.N,Net-(D11-DOUT)*%
X107370000Y-57250000D03*
%TO.P,D11,3,VDD_3*%
%TO.N,/5V*%
X107370000Y-58750000D03*
%TO.P,D11,2,DIN_2*%
%TO.N,Net-(D11-DIN)*%
X112820000Y-58750000D03*
%TO.P,D11,1,VSS_1*%
%TO.N,Net-(D10-VSS)*%
X112820000Y-57250000D03*
%TD*%
D12*
%TO.P,SW1,2,2_2*%
%TO.N,Net-(D1-A)*%
X87095000Y-51000000D03*
%TO.P,SW1,1,1_1*%
%TO.N,/ROW3*%
X93445000Y-48460000D03*
%TD*%
%TO.P,SW3,1,1_1*%
%TO.N,/ROW1*%
X93635000Y-86420000D03*
%TO.P,SW3,2,2_2*%
%TO.N,Net-(D4-K)*%
X87285000Y-88960000D03*
%TD*%
D13*
%TO.P,D6,1,K_1*%
%TO.N,/D9*%
X138000000Y-80810000D03*
D14*
%TO.P,D6,2,A_2*%
%TO.N,/D6*%
X138000000Y-73190000D03*
%TD*%
D12*
%TO.P,SW7,1,1_1*%
%TO.N,/ROW3*%
X131635000Y-48460000D03*
%TO.P,SW7,2,2_2*%
%TO.N,Net-(D3-A)*%
X125285000Y-51000000D03*
%TD*%
D13*
%TO.P,D3,1,K_1*%
%TO.N,/D6*%
X138000000Y-61810000D03*
D14*
%TO.P,D3,2,A_2*%
%TO.N,Net-(D3-A)*%
X138000000Y-54190000D03*
%TD*%
D15*
%TO.P,U1,1,PA02_A0_D0_1*%
%TO.N,/ROW1*%
X108125000Y-25380000D03*
D16*
%TO.P,U1,2,PA4_A1_D1_2*%
%TO.N,/ROW2*%
X108125000Y-27920000D03*
%TO.P,U1,3,PA10_A2_D2_3*%
%TO.N,/ROW3*%
X108125000Y-30460000D03*
%TO.P,U1,4,PA11_A3_D3_4*%
%TO.N,Net-(D10-DIN)*%
X108125000Y-33000000D03*
%TO.P,U1,5,PA8_A4_D4_SDA_5*%
%TO.N,/SDA*%
X108125000Y-35540000D03*
%TO.P,U1,6,PA9_A5_D5_SCL_6*%
%TO.N,/SCL*%
X108125000Y-38080000D03*
%TO.P,U1,7,PB08_A6_D6_TX_7*%
%TO.N,Net-(U1-PB08_A6_D6_TX)*%
X108125000Y-40620000D03*
%TO.P,U1,8,PB09_A7_D7_RX_8*%
%TO.N,Net-(U1-PB09_A7_D7_RX)*%
X90875000Y-40620000D03*
%TO.P,U1,9,PA7_A8_D8_SCK_9*%
%TO.N,/COL1*%
X90875000Y-38080000D03*
%TO.P,U1,10,PA5_A9_D9_MISO_10*%
%TO.N,/COL2*%
X90875000Y-35540000D03*
D17*
%TO.P,U1,11,PA6_A10_D10_MOSI_11*%
%TO.N,/COL3*%
X90875000Y-33000000D03*
%TO.P,U1,12,3V3_12*%
%TO.N,unconnected-(U1-3V3-Pad12)*%
X90875000Y-30460000D03*
%TO.P,U1,13,GND_13*%
%TO.N,Net-(D10-VSS)*%
X90875000Y-27920000D03*
%TO.P,U1,14,5V_14*%
%TO.N,/5V*%
X90875000Y-25380000D03*
%TD*%
D13*
%TO.P,D2,1,K_1*%
%TO.N,/D5*%
X119500000Y-61810000D03*
D14*
%TO.P,D2,2,A_2*%
%TO.N,Net-(D2-A)*%
X119500000Y-54190000D03*
%TD*%
D12*
%TO.P,SW9,1,1_1*%
%TO.N,/ROW1*%
X131635000Y-86420000D03*
%TO.P,SW9,2,2_2*%
%TO.N,/D9*%
X125285000Y-88960000D03*
%TD*%
%TO.P,SW2,1,1_1*%
%TO.N,/ROW2*%
X93500000Y-67420000D03*
%TO.P,SW2,2,2_2*%
%TO.N,Net-(D1-K)*%
X87150000Y-69960000D03*
%TD*%
%TO.P,SW8,1,1_1*%
%TO.N,/ROW2*%
X131555000Y-67420000D03*
%TO.P,SW8,2,2_2*%
%TO.N,/D6*%
X125205000Y-69960000D03*
%TD*%
%TO.P,SW4,1,1_1*%
%TO.N,/ROW3*%
X112635000Y-48460000D03*
%TO.P,SW4,2,2_2*%
%TO.N,Net-(D2-A)*%
X106285000Y-51000000D03*
%TD*%
D18*
%TO.P,SW10,A,A_A*%
%TO.N,Net-(U1-PB09_A7_D7_RX)*%
X72000000Y-30100000D03*
D19*
%TO.P,SW10,B,B_B*%
%TO.N,Net-(D10-VSS)*%
X72000000Y-35100000D03*
%TO.P,SW10,C,C_C*%
%TO.N,Net-(U1-PB08_A6_D6_TX)*%
X72000000Y-32600000D03*
D20*
%TO.P,SW10,MP*%
%TO.N,N/C*%
X79500000Y-27000000D03*
X79500000Y-38200000D03*
D19*
%TO.P,SW10,S1,S1_S1*%
%TO.N,unconnected-(SW10-PadS1)*%
X86500000Y-35100000D03*
%TO.P,SW10,S2,S2_S2*%
%TO.N,Net-(D10-VSS)*%
X86500000Y-30100000D03*
%TD*%
D21*
%TO.P,U2,1,GND_1*%
%TO.N,Net-(D10-VSS)*%
X112500000Y-36310000D03*
D22*
%TO.P,U2,2,VCC_2*%
%TO.N,/5V*%
X112500000Y-33770000D03*
%TO.P,U2,3,SCL_3*%
%TO.N,/SCL*%
X112500000Y-31230000D03*
%TO.P,U2,4,SDA_4*%
%TO.N,/SDA*%
X112500000Y-28690000D03*
%TD*%
D12*
%TO.P,SW6,1,1_1*%
%TO.N,/ROW1*%
X112715000Y-86420000D03*
%TO.P,SW6,2,2_2*%
%TO.N,/D8*%
X106365000Y-88960000D03*
%TD*%
D13*
%TO.P,D7,1,K_1*%
%TO.N,/COL1*%
X100595000Y-99810000D03*
D14*
%TO.P,D7,2,A_2*%
%TO.N,Net-(D4-K)*%
X100595000Y-92190000D03*
%TD*%
D13*
%TO.P,D4,1,K_1*%
%TO.N,Net-(D4-K)*%
X100595000Y-80810000D03*
D14*
%TO.P,D4,2,A_2*%
%TO.N,Net-(D1-K)*%
X100595000Y-73190000D03*
%TD*%
D12*
%TO.P,SW5,1,1_1*%
%TO.N,/ROW2*%
X112635000Y-67420000D03*
%TO.P,SW5,2,2_2*%
%TO.N,/D5*%
X106285000Y-69960000D03*
%TD*%
D13*
%TO.P,D8,1,K_1*%
%TO.N,/COL2*%
X119595000Y-99810000D03*
D14*
%TO.P,D8,2,A_2*%
%TO.N,/D8*%
X119595000Y-92190000D03*
%TD*%
D13*
%TO.P,D9,1,K_1*%
%TO.N,/COL3*%
X138000000Y-99810000D03*
D14*
%TO.P,D9,2,A_2*%
%TO.N,/D9*%
X138000000Y-92190000D03*
%TD*%
D13*
%TO.P,D1,1,K_1*%
%TO.N,Net-(D1-K)*%
X100500000Y-61810000D03*
D14*
%TO.P,D1,2,A_2*%
%TO.N,Net-(D1-A)*%
X100500000Y-54190000D03*
%TD*%
D10*
%TO.P,D12,1,VSS_1*%
%TO.N,Net-(D10-VSS)*%
X88370000Y-58750000D03*
%TO.P,D12,2,DIN_2*%
%TO.N,Net-(D11-DOUT)*%
X88370000Y-57250000D03*
%TO.P,D12,3,VDD_3*%
%TO.N,/5V*%
X93820000Y-57250000D03*
%TO.P,D12,4,DOUT_4*%
%TO.N,Net-(D12-DOUT)*%
X93820000Y-58750000D03*
%TD*%
D13*
%TO.P,D5,1,K_1*%
%TO.N,/D8*%
X119595000Y-80810000D03*
D14*
%TO.P,D5,2,A_2*%
%TO.N,/D5*%
X119595000Y-73190000D03*
%TD*%
%TO.N,Net-(D10-VSS)*%
D23*
X78670000Y-49300000D02*
X78670000Y-41770000D01*
X88370000Y-59000000D02*
X78670000Y-49300000D01*
%TO.N,/5V*%
X132975000Y-99975000D02*
X132975000Y-95500000D01*
%TO.N,Net-(D13-DOUT)*%
X133035000Y-78965000D02*
X133035000Y-89000000D01*
%TO.N,Net-(D10-VSS)*%
X122000000Y-80000000D02*
X122000000Y-95500000D01*
%TO.N,Net-(D15-DOUT)*%
X93242056Y-89150000D02*
X93000000Y-89150000D01*
%TO.N,/5V*%
X98500000Y-82750000D02*
X98500000Y-95500000D01*
%TO.N,Net-(D10-VSS)*%
X124250000Y-77750000D02*
X123000000Y-79000000D01*
X119870000Y-76250000D02*
X122810000Y-79190000D01*
X113225000Y-68809899D02*
X113267449Y-68767449D01*
%TO.N,Net-(D11-DIN)*%
X112820000Y-65255101D02*
X107787550Y-70287550D01*
%TO.N,Net-(D10-VSS)*%
X84680000Y-67440000D02*
X84680000Y-78000000D01*
%TO.N,Net-(D10-DIN)*%
X105500000Y-34625000D02*
X107125000Y-33000000D01*
X122815000Y-54037056D02*
X122815000Y-53449925D01*
X122815000Y-53449925D02*
X111365075Y-42000000D01*
X111365075Y-42000000D02*
X105500000Y-42000000D01*
X123517944Y-54740000D02*
X122815000Y-54037056D01*
X123860000Y-54740000D02*
X123517944Y-54740000D01*
X126370000Y-57250000D02*
X123860000Y-54740000D01*
X105500000Y-42000000D02*
X105500000Y-34625000D01*
%TO.N,Net-(D10-DOUT)*%
X130155000Y-67999899D02*
X130155000Y-66840101D01*
X130155000Y-66840101D02*
X131820000Y-65175101D01*
X131820000Y-65175101D02*
X131820000Y-58750000D01*
X126370000Y-71784899D02*
X130155000Y-67999899D01*
%TO.N,/5V*%
X136650000Y-57250000D02*
X136900000Y-57500000D01*
X131820000Y-57250000D02*
X136650000Y-57250000D01*
X136900000Y-57500000D02*
X136900000Y-67330000D01*
%TO.N,Net-(D10-VSS)*%
X84680000Y-79155000D02*
X88275000Y-82750000D01*
X87500000Y-64620000D02*
X84680000Y-67440000D01*
X87500000Y-59620000D02*
X87500000Y-64620000D01*
X88370000Y-58750000D02*
X87500000Y-59620000D01*
%TO.N,/5V*%
X136900000Y-67330000D02*
X137195000Y-67625000D01*
X136900000Y-51534365D02*
X136900000Y-57500000D01*
X119135635Y-33770000D02*
X136900000Y-51534365D01*
X112500000Y-33770000D02*
X119135635Y-33770000D01*
X110225000Y-31495000D02*
X112500000Y-33770000D01*
X106075000Y-26530000D02*
X109311346Y-26530000D01*
X91875000Y-25380000D02*
X104925000Y-25380000D01*
X104925000Y-25380000D02*
X106075000Y-26530000D01*
X109311346Y-26530000D02*
X110225000Y-27443654D01*
X110225000Y-27443654D02*
X110225000Y-31495000D01*
%TO.N,Net-(U1-PB08_A6_D6_TX)*%
X110219390Y-40620000D02*
X107125000Y-40620000D01*
X113650000Y-35430610D02*
X113650000Y-37189390D01*
X111915686Y-35160000D02*
X113379390Y-35160000D01*
X110505686Y-32804340D02*
X110505686Y-33750000D01*
X109551346Y-31850000D02*
X110505686Y-32804340D01*
X106698654Y-31850000D02*
X109551346Y-31850000D01*
X113650000Y-37189390D02*
X110219390Y-40620000D01*
X101618654Y-26770000D02*
X106698654Y-31850000D01*
X87991522Y-26770000D02*
X101618654Y-26770000D01*
X110505686Y-33750000D02*
X111915686Y-35160000D01*
X82161522Y-32600000D02*
X87991522Y-26770000D01*
X113379390Y-35160000D02*
X113650000Y-35430610D01*
X72000000Y-32600000D02*
X82161522Y-32600000D01*
%TO.N,Net-(D10-VSS)*%
X79130000Y-41770000D02*
X78670000Y-41770000D01*
X86500000Y-30100000D02*
X85200000Y-31400000D01*
X85200000Y-31400000D02*
X85200000Y-35700000D01*
X85200000Y-35700000D02*
X79130000Y-41770000D01*
X88680000Y-27920000D02*
X86500000Y-30100000D01*
X91875000Y-27920000D02*
X88680000Y-27920000D01*
X78670000Y-41770000D02*
X72000000Y-35100000D01*
%TO.N,/5V*%
X130065686Y-107000000D02*
X133500000Y-103565686D01*
X108000000Y-104000000D02*
X115004314Y-104000000D01*
X107870000Y-103870000D02*
X108000000Y-104000000D01*
X133500000Y-103565686D02*
X133500000Y-100500000D01*
X115004314Y-104000000D02*
X118004315Y-107000000D01*
X118004315Y-107000000D02*
X130065686Y-107000000D01*
X107870000Y-101750000D02*
X107870000Y-103870000D01*
%TO.N,Net-(D10-VSS)*%
X114500000Y-67534899D02*
X114500000Y-63750000D01*
X114500000Y-63750000D02*
X126370000Y-63750000D01*
X85885000Y-85140000D02*
X88275000Y-82750000D01*
X85885000Y-89672944D02*
X85885000Y-85140000D01*
%TO.N,/5V*%
X137195000Y-67625000D02*
X131820000Y-73000000D01*
X97750000Y-82000000D02*
X98500000Y-82750000D01*
X98500000Y-101750000D02*
X107870000Y-101750000D01*
X98500000Y-63750000D02*
X98500000Y-82750000D01*
X133677944Y-83107944D02*
X133677944Y-90300000D01*
X93820000Y-57250000D02*
X94750000Y-57250000D01*
X94750000Y-57250000D02*
X98500000Y-61000000D01*
X98500000Y-61000000D02*
X98500000Y-63750000D01*
%TO.N,Net-(D11-DOUT)*%
X88370000Y-52630000D02*
X91000000Y-50000000D01*
X88370000Y-57250000D02*
X88370000Y-52630000D01*
X94754365Y-50000000D02*
X102004365Y-57250000D01*
X91000000Y-50000000D02*
X94754365Y-50000000D01*
X102004365Y-57250000D02*
X107370000Y-57250000D01*
%TO.N,/5V*%
X98500000Y-63750000D02*
X102370000Y-63750000D01*
X102370000Y-63750000D02*
X107370000Y-58750000D01*
%TO.N,Net-(D11-DIN)*%
X113500000Y-63500000D02*
X112820000Y-64180000D01*
X112820000Y-64180000D02*
X112820000Y-65255101D01*
%TO.N,Net-(D10-VSS)*%
X114500000Y-63750000D02*
X114320000Y-63750000D01*
X114500000Y-63750000D02*
X114500000Y-58930000D01*
X114500000Y-58930000D02*
X112820000Y-57250000D01*
%TO.N,Net-(D11-DIN)*%
X113500000Y-63500000D02*
X113500000Y-59430000D01*
X113500000Y-59430000D02*
X112820000Y-58750000D01*
%TO.N,Net-(D10-VSS)*%
X78670000Y-41770000D02*
X101648402Y-41770000D01*
X101648402Y-41770000D02*
X112820000Y-52941598D01*
X112820000Y-52941598D02*
X112820000Y-57250000D01*
X126370000Y-63750000D02*
X126370000Y-58750000D01*
%TO.N,Net-(D12-DOUT)*%
X93820000Y-58750000D02*
X95000000Y-59930000D01*
X95000000Y-59930000D02*
X95000000Y-63940101D01*
X88000000Y-75975000D02*
X88275000Y-76250000D01*
X95000000Y-63940101D02*
X88550000Y-70390101D01*
X88000000Y-71089899D02*
X88000000Y-75975000D01*
X88550000Y-70390101D02*
X88550000Y-70539899D01*
X88550000Y-70539899D02*
X88000000Y-71089899D01*
%TO.N,Net-(D10-VSS)*%
X84930000Y-77750000D02*
X84680000Y-78000000D01*
X84680000Y-78000000D02*
X84680000Y-79155000D01*
X88275000Y-77750000D02*
X84930000Y-77750000D01*
%TO.N,/5V*%
X93725000Y-76250000D02*
X97750000Y-80275000D01*
X97750000Y-80275000D02*
X97750000Y-82000000D01*
%TO.N,Net-(D11-DIN)*%
X107787550Y-70287550D02*
X107745000Y-70330101D01*
X107787550Y-70287550D02*
X107745000Y-70330100D01*
X107745000Y-70330100D02*
X107745000Y-76220000D01*
X107745000Y-76220000D02*
X107775000Y-76250000D01*
%TO.N,/5V*%
X107775000Y-77750000D02*
X102775000Y-82750000D01*
X102775000Y-82750000D02*
X98500000Y-82750000D01*
%TO.N,Net-(D10-VSS)*%
X113267449Y-68767449D02*
X113225000Y-68809898D01*
X113267449Y-68767449D02*
X114500000Y-67534899D01*
X113225000Y-68809898D02*
X113225000Y-76250000D01*
X113225000Y-76250000D02*
X119870000Y-76250000D01*
%TO.N,Net-(D14-DIN)*%
X114115000Y-78640000D02*
X113225000Y-77750000D01*
%TO.N,/5V*%
X131820000Y-73000000D02*
X131820000Y-76250000D01*
X131820000Y-76250000D02*
X134500000Y-78930000D01*
X134500000Y-78930000D02*
X134500000Y-82285888D01*
X134500000Y-82285888D02*
X133677944Y-83107944D01*
%TO.N,Net-(D13-DOUT)*%
X131820000Y-77750000D02*
X133035000Y-78965000D01*
%TO.N,Net-(D10-DOUT)*%
X126370000Y-71784899D02*
X126370000Y-76250000D01*
%TO.N,Net-(D10-VSS)*%
X126370000Y-77750000D02*
X124250000Y-77750000D01*
X123000000Y-79000000D02*
X122810000Y-79190000D01*
X123000000Y-79000000D02*
X122000000Y-80000000D01*
%TO.N,/5V*%
X93725000Y-95250000D02*
X98250000Y-95250000D01*
X98500000Y-95500000D02*
X98500000Y-101750000D01*
X98250000Y-95250000D02*
X98500000Y-95500000D01*
%TO.N,Net-(D10-VSS)*%
X85885000Y-89672944D02*
X84815000Y-90742944D01*
X84815000Y-90742944D02*
X84815000Y-93290000D01*
X84815000Y-93290000D02*
X88275000Y-96750000D01*
%TO.N,Net-(D15-DOUT)*%
X90121598Y-89150000D02*
X88275000Y-90996598D01*
X88275000Y-90996598D02*
X88275000Y-95250000D01*
X95500000Y-86650000D02*
X95500000Y-84525000D01*
X93000000Y-89150000D02*
X95500000Y-86650000D01*
X93000000Y-89150000D02*
X90121598Y-89150000D01*
X95500000Y-84525000D02*
X93725000Y-82750000D01*
X93725000Y-82750000D02*
X93725000Y-77750000D01*
%TO.N,Net-(D10-VSS)*%
X113320000Y-95250000D02*
X121750000Y-95250000D01*
X121750000Y-95250000D02*
X122000000Y-95500000D01*
%TO.N,/5V*%
X107870000Y-96750000D02*
X107870000Y-101750000D01*
%TO.N,Net-(D14-DIN)*%
X114115000Y-89000000D02*
X114115000Y-78640000D01*
X107870000Y-95250000D02*
X107825000Y-95205000D01*
X107825000Y-95205000D02*
X107825000Y-90526598D01*
X107825000Y-90526598D02*
X109351598Y-89000000D01*
X109351598Y-89000000D02*
X114115000Y-89000000D01*
%TO.N,Net-(D10-VSS)*%
X126370000Y-96750000D02*
X123250000Y-96750000D01*
X123250000Y-96750000D02*
X122000000Y-95500000D01*
%TO.N,Net-(D13-DOUT)*%
X126370000Y-90901598D02*
X128271598Y-89000000D01*
X128271598Y-89000000D02*
X133035000Y-89000000D01*
X126370000Y-95250000D02*
X126370000Y-90901598D01*
%TO.N,/5V*%
X133500000Y-100500000D02*
X132975000Y-99975000D01*
X132975000Y-91002944D02*
X133677944Y-90300000D01*
X132975000Y-95500000D02*
X132975000Y-91002944D01*
X132975000Y-95500000D02*
X132070000Y-95500000D01*
X132070000Y-95500000D02*
X131820000Y-95250000D01*
%TO.N,Net-(D16-DOUT)*%
X113320000Y-101750000D02*
X118070000Y-106500000D01*
X113320000Y-96750000D02*
X113320000Y-101750000D01*
X118070000Y-106500000D02*
X130000000Y-106500000D01*
X130000000Y-106500000D02*
X131820000Y-104680000D01*
X131820000Y-104680000D02*
X131820000Y-96750000D01*
%TD*%
M02*
