%TF.GenerationSoftware,KiCad,Pcbnew,10.0.3*%
%TF.CreationDate,2026-06-04T15:17:12-04:00*%
%TF.ProjectId,PCB,5043422e-6b69-4636-9164-5f7063625858,rev?*%
%TF.SameCoordinates,Original*%
%TF.FileFunction,Soldermask,Top*%
%TF.FilePolarity,Negative*%
%FSLAX46Y46*%
G04 Gerber Fmt 4.6, Leading zero omitted, Abs format (unit mm)*
G04 Created by KiCad (PCBNEW 10.0.3) date 2026-06-04 15:17:12*
%MOMM*%
%LPD*%
G01*
G04 APERTURE LIST*
G04 Aperture macros list*
%AMRoundRect*
0 Rectangle with rounded corners*
0 $1 Rounding radius*
0 $2 $3 $4 $5 $6 $7 $8 $9 X,Y pos of 4 corners*
0 Add a 4 corners polygon primitive as box body*
4,1,4,$2,$3,$4,$5,$6,$7,$8,$9,$2,$3,0*
0 Add four circle primitives for the rounded corners*
1,1,$1+$1,$2,$3*
1,1,$1+$1,$4,$5*
1,1,$1+$1,$6,$7*
1,1,$1+$1,$8,$9*
0 Add four rect primitives between the rounded corners*
20,1,$1+$1,$2,$3,$4,$5,0*
20,1,$1+$1,$4,$5,$6,$7,0*
20,1,$1+$1,$6,$7,$8,$9,0*
20,1,$1+$1,$8,$9,$2,$3,0*%
G04 Aperture macros list end*
%ADD10C,2.500000*%
%ADD11RoundRect,0.205000X-0.470000X-0.205000X0.470000X-0.205000X0.470000X0.205000X-0.470000X0.205000X0*%
%ADD12RoundRect,0.205000X0.470000X0.205000X-0.470000X0.205000X-0.470000X-0.205000X0.470000X-0.205000X0*%
%ADD13C,2.200000*%
%ADD14C,1.700000*%
%ADD15C,4.000000*%
%ADD16RoundRect,0.250000X0.550000X-0.550000X0.550000X0.550000X-0.550000X0.550000X-0.550000X-0.550000X0*%
%ADD17C,1.600000*%
%ADD18R,3.500000X1.700000*%
%ADD19O,3.600000X1.700000*%
%ADD20O,3.700000X1.700000*%
%ADD21R,2.000000X2.000000*%
%ADD22C,2.000000*%
%ADD23R,3.200000X2.000000*%
%ADD24RoundRect,0.170000X0.680000X-0.680000X0.680000X0.680000X-0.680000X0.680000X-0.680000X-0.680000X0*%
G04 APERTURE END LIST*
D10*
%TO.C,H4*%
X155000000Y-107500000D03*
%TD*%
%TO.C,H3*%
X65000000Y-107500000D03*
%TD*%
%TO.C,H2*%
X64000000Y-26500000D03*
%TD*%
%TO.C,H1*%
X156000000Y-27500000D03*
%TD*%
D11*
%TO.C,D16*%
X126370000Y-96750000D03*
X126370000Y-95250000D03*
X131820000Y-95250000D03*
X131820000Y-96750000D03*
%TD*%
D12*
%TO.C,D17*%
X107870000Y-95250000D03*
X107870000Y-96750000D03*
X113320000Y-96750000D03*
X113320000Y-95250000D03*
%TD*%
D11*
%TO.C,D18*%
X93725000Y-96750000D03*
X93725000Y-95250000D03*
X88275000Y-95250000D03*
X88275000Y-96750000D03*
%TD*%
%TO.C,D13*%
X131820000Y-77750000D03*
X131820000Y-76250000D03*
X126370000Y-76250000D03*
X126370000Y-77750000D03*
%TD*%
D12*
%TO.C,D14*%
X113225000Y-76250000D03*
X113225000Y-77750000D03*
X107775000Y-77750000D03*
X107775000Y-76250000D03*
%TD*%
D11*
%TO.C,D15*%
X93725000Y-77750000D03*
X93725000Y-76250000D03*
X88275000Y-76250000D03*
X88275000Y-77750000D03*
%TD*%
%TO.C,D10*%
X131820000Y-58750000D03*
X131820000Y-57250000D03*
X126370000Y-57250000D03*
X126370000Y-58750000D03*
%TD*%
D12*
%TO.C,D11*%
X107370000Y-57250000D03*
X107370000Y-58750000D03*
X112820000Y-58750000D03*
X112820000Y-57250000D03*
%TD*%
D13*
%TO.C,SW1*%
X87095000Y-51000000D03*
X93445000Y-48460000D03*
D14*
X95985000Y-53540000D03*
D15*
X90905000Y-53540000D03*
D14*
X85825000Y-53540000D03*
%TD*%
%TO.C,SW3*%
X86015000Y-91500000D03*
D15*
X91095000Y-91500000D03*
D14*
X96175000Y-91500000D03*
D13*
X93635000Y-86420000D03*
X87285000Y-88960000D03*
%TD*%
D16*
%TO.C,D6*%
X138000000Y-80810000D03*
D17*
X138000000Y-73190000D03*
%TD*%
D14*
%TO.C,SW7*%
X124015000Y-53540000D03*
D15*
X129095000Y-53540000D03*
D14*
X134175000Y-53540000D03*
D13*
X131635000Y-48460000D03*
X125285000Y-51000000D03*
%TD*%
D16*
%TO.C,D3*%
X138000000Y-61810000D03*
D17*
X138000000Y-54190000D03*
%TD*%
D18*
%TO.C,U1*%
X108125000Y-25380000D03*
D19*
X108125000Y-27920000D03*
X108125000Y-30460000D03*
X108125000Y-33000000D03*
X108125000Y-35540000D03*
X108125000Y-38080000D03*
X108125000Y-40620000D03*
X90875000Y-40620000D03*
X90875000Y-38080000D03*
X90875000Y-35540000D03*
D20*
X90875000Y-33000000D03*
X90875000Y-30460000D03*
X90875000Y-27920000D03*
X90875000Y-25380000D03*
%TD*%
D16*
%TO.C,D2*%
X119500000Y-61810000D03*
D17*
X119500000Y-54190000D03*
%TD*%
D14*
%TO.C,SW9*%
X124015000Y-91500000D03*
D15*
X129095000Y-91500000D03*
D14*
X134175000Y-91500000D03*
D13*
X131635000Y-86420000D03*
X125285000Y-88960000D03*
%TD*%
D14*
%TO.C,SW2*%
X85880000Y-72500000D03*
D15*
X90960000Y-72500000D03*
D14*
X96040000Y-72500000D03*
D13*
X93500000Y-67420000D03*
X87150000Y-69960000D03*
%TD*%
D14*
%TO.C,SW8*%
X123935000Y-72500000D03*
D15*
X129015000Y-72500000D03*
D14*
X134095000Y-72500000D03*
D13*
X131555000Y-67420000D03*
X125205000Y-69960000D03*
%TD*%
D14*
%TO.C,SW4*%
X105015000Y-53540000D03*
D15*
X110095000Y-53540000D03*
D14*
X115175000Y-53540000D03*
D13*
X112635000Y-48460000D03*
X106285000Y-51000000D03*
%TD*%
D21*
%TO.C,SW10*%
X72000000Y-30100000D03*
D22*
X72000000Y-35100000D03*
X72000000Y-32600000D03*
D23*
X79500000Y-27000000D03*
X79500000Y-38200000D03*
D22*
X86500000Y-35100000D03*
X86500000Y-30100000D03*
%TD*%
D24*
%TO.C,U2*%
X112500000Y-36310000D03*
D14*
X112500000Y-33770000D03*
X112500000Y-31230000D03*
X112500000Y-28690000D03*
%TD*%
%TO.C,SW6*%
X105095000Y-91500000D03*
D15*
X110175000Y-91500000D03*
D14*
X115255000Y-91500000D03*
D13*
X112715000Y-86420000D03*
X106365000Y-88960000D03*
%TD*%
D16*
%TO.C,D7*%
X100595000Y-99810000D03*
D17*
X100595000Y-92190000D03*
%TD*%
D16*
%TO.C,D4*%
X100595000Y-80810000D03*
D17*
X100595000Y-73190000D03*
%TD*%
D14*
%TO.C,SW5*%
X105015000Y-72500000D03*
D15*
X110095000Y-72500000D03*
D14*
X115175000Y-72500000D03*
D13*
X112635000Y-67420000D03*
X106285000Y-69960000D03*
%TD*%
D16*
%TO.C,D8*%
X119595000Y-99810000D03*
D17*
X119595000Y-92190000D03*
%TD*%
D16*
%TO.C,D9*%
X138000000Y-99810000D03*
D17*
X138000000Y-92190000D03*
%TD*%
D16*
%TO.C,D1*%
X100500000Y-61810000D03*
D17*
X100500000Y-54190000D03*
%TD*%
D11*
%TO.C,D12*%
X88370000Y-58750000D03*
X88370000Y-57250000D03*
X93820000Y-57250000D03*
X93820000Y-58750000D03*
%TD*%
D16*
%TO.C,D5*%
X119595000Y-80810000D03*
D17*
X119595000Y-73190000D03*
%TD*%
M02*
