%TF.GenerationSoftware,KiCad,Pcbnew,10.0.3*%
%TF.CreationDate,2026-06-04T15:17:12-04:00*%
%TF.ProjectId,PCB,5043422e-6b69-4636-9164-5f7063625858,rev?*%
%TF.SameCoordinates,Original*%
%TF.FileFunction,Legend,Bot*%
%TF.FilePolarity,Positive*%
%FSLAX46Y46*%
G04 Gerber Fmt 4.6, Leading zero omitted, Abs format (unit mm)*
G04 Created by KiCad (PCBNEW 10.0.3) date 2026-06-04 15:17:12*
%MOMM*%
%LPD*%
G01*
G04 APERTURE LIST*
%ADD10C,0.101600*%
%ADD11C,0.150000*%
%ADD12C,0.127000*%
%ADD13C,0.120000*%
%ADD14C,0.254000*%
%ADD15C,0.025400*%
G04 APERTURE END LIST*
D10*
X100177333Y-35056985D02*
X100177333Y-35776652D01*
X100177333Y-35776652D02*
X100135000Y-35861318D01*
X100135000Y-35861318D02*
X100092666Y-35903652D01*
X100092666Y-35903652D02*
X100008000Y-35945985D01*
X100008000Y-35945985D02*
X99838666Y-35945985D01*
X99838666Y-35945985D02*
X99754000Y-35903652D01*
X99754000Y-35903652D02*
X99711666Y-35861318D01*
X99711666Y-35861318D02*
X99669333Y-35776652D01*
X99669333Y-35776652D02*
X99669333Y-35056985D01*
X98780333Y-35945985D02*
X99288333Y-35945985D01*
X99034333Y-35945985D02*
X99034333Y-35056985D01*
X99034333Y-35056985D02*
X99119000Y-35183985D01*
X99119000Y-35183985D02*
X99203667Y-35268652D01*
X99203667Y-35268652D02*
X99288333Y-35310985D01*
D11*
X104261904Y-31907200D02*
X104119047Y-31954819D01*
X104119047Y-31954819D02*
X103880952Y-31954819D01*
X103880952Y-31954819D02*
X103785714Y-31907200D01*
X103785714Y-31907200D02*
X103738095Y-31859580D01*
X103738095Y-31859580D02*
X103690476Y-31764342D01*
X103690476Y-31764342D02*
X103690476Y-31669104D01*
X103690476Y-31669104D02*
X103738095Y-31573866D01*
X103738095Y-31573866D02*
X103785714Y-31526247D01*
X103785714Y-31526247D02*
X103880952Y-31478628D01*
X103880952Y-31478628D02*
X104071428Y-31431009D01*
X104071428Y-31431009D02*
X104166666Y-31383390D01*
X104166666Y-31383390D02*
X104214285Y-31335771D01*
X104214285Y-31335771D02*
X104261904Y-31240533D01*
X104261904Y-31240533D02*
X104261904Y-31145295D01*
X104261904Y-31145295D02*
X104214285Y-31050057D01*
X104214285Y-31050057D02*
X104166666Y-31002438D01*
X104166666Y-31002438D02*
X104071428Y-30954819D01*
X104071428Y-30954819D02*
X103833333Y-30954819D01*
X103833333Y-30954819D02*
X103690476Y-31002438D01*
X102880952Y-31907200D02*
X102976190Y-31954819D01*
X102976190Y-31954819D02*
X103166666Y-31954819D01*
X103166666Y-31954819D02*
X103261904Y-31907200D01*
X103261904Y-31907200D02*
X103309523Y-31811961D01*
X103309523Y-31811961D02*
X103309523Y-31431009D01*
X103309523Y-31431009D02*
X103261904Y-31335771D01*
X103261904Y-31335771D02*
X103166666Y-31288152D01*
X103166666Y-31288152D02*
X102976190Y-31288152D01*
X102976190Y-31288152D02*
X102880952Y-31335771D01*
X102880952Y-31335771D02*
X102833333Y-31431009D01*
X102833333Y-31431009D02*
X102833333Y-31526247D01*
X102833333Y-31526247D02*
X103309523Y-31621485D01*
X102023809Y-31907200D02*
X102119047Y-31954819D01*
X102119047Y-31954819D02*
X102309523Y-31954819D01*
X102309523Y-31954819D02*
X102404761Y-31907200D01*
X102404761Y-31907200D02*
X102452380Y-31811961D01*
X102452380Y-31811961D02*
X102452380Y-31431009D01*
X102452380Y-31431009D02*
X102404761Y-31335771D01*
X102404761Y-31335771D02*
X102309523Y-31288152D01*
X102309523Y-31288152D02*
X102119047Y-31288152D01*
X102119047Y-31288152D02*
X102023809Y-31335771D01*
X102023809Y-31335771D02*
X101976190Y-31431009D01*
X101976190Y-31431009D02*
X101976190Y-31526247D01*
X101976190Y-31526247D02*
X102452380Y-31621485D01*
X101166666Y-31907200D02*
X101261904Y-31954819D01*
X101261904Y-31954819D02*
X101452380Y-31954819D01*
X101452380Y-31954819D02*
X101547618Y-31907200D01*
X101547618Y-31907200D02*
X101595237Y-31811961D01*
X101595237Y-31811961D02*
X101595237Y-31431009D01*
X101595237Y-31431009D02*
X101547618Y-31335771D01*
X101547618Y-31335771D02*
X101452380Y-31288152D01*
X101452380Y-31288152D02*
X101261904Y-31288152D01*
X101261904Y-31288152D02*
X101166666Y-31335771D01*
X101166666Y-31335771D02*
X101119047Y-31431009D01*
X101119047Y-31431009D02*
X101119047Y-31526247D01*
X101119047Y-31526247D02*
X101595237Y-31621485D01*
X100261904Y-31954819D02*
X100261904Y-30954819D01*
X100261904Y-31907200D02*
X100357142Y-31954819D01*
X100357142Y-31954819D02*
X100547618Y-31954819D01*
X100547618Y-31954819D02*
X100642856Y-31907200D01*
X100642856Y-31907200D02*
X100690475Y-31859580D01*
X100690475Y-31859580D02*
X100738094Y-31764342D01*
X100738094Y-31764342D02*
X100738094Y-31478628D01*
X100738094Y-31478628D02*
X100690475Y-31383390D01*
X100690475Y-31383390D02*
X100642856Y-31335771D01*
X100642856Y-31335771D02*
X100547618Y-31288152D01*
X100547618Y-31288152D02*
X100357142Y-31288152D01*
X100357142Y-31288152D02*
X100261904Y-31335771D01*
X99071427Y-31907200D02*
X98928570Y-31954819D01*
X98928570Y-31954819D02*
X98690475Y-31954819D01*
X98690475Y-31954819D02*
X98595237Y-31907200D01*
X98595237Y-31907200D02*
X98547618Y-31859580D01*
X98547618Y-31859580D02*
X98499999Y-31764342D01*
X98499999Y-31764342D02*
X98499999Y-31669104D01*
X98499999Y-31669104D02*
X98547618Y-31573866D01*
X98547618Y-31573866D02*
X98595237Y-31526247D01*
X98595237Y-31526247D02*
X98690475Y-31478628D01*
X98690475Y-31478628D02*
X98880951Y-31431009D01*
X98880951Y-31431009D02*
X98976189Y-31383390D01*
X98976189Y-31383390D02*
X99023808Y-31335771D01*
X99023808Y-31335771D02*
X99071427Y-31240533D01*
X99071427Y-31240533D02*
X99071427Y-31145295D01*
X99071427Y-31145295D02*
X99023808Y-31050057D01*
X99023808Y-31050057D02*
X98976189Y-31002438D01*
X98976189Y-31002438D02*
X98880951Y-30954819D01*
X98880951Y-30954819D02*
X98642856Y-30954819D01*
X98642856Y-30954819D02*
X98499999Y-31002438D01*
X98214284Y-31288152D02*
X97833332Y-31288152D01*
X98071427Y-30954819D02*
X98071427Y-31811961D01*
X98071427Y-31811961D02*
X98023808Y-31907200D01*
X98023808Y-31907200D02*
X97928570Y-31954819D01*
X97928570Y-31954819D02*
X97833332Y-31954819D01*
X97071427Y-31288152D02*
X97071427Y-31954819D01*
X97499998Y-31288152D02*
X97499998Y-31811961D01*
X97499998Y-31811961D02*
X97452379Y-31907200D01*
X97452379Y-31907200D02*
X97357141Y-31954819D01*
X97357141Y-31954819D02*
X97214284Y-31954819D01*
X97214284Y-31954819D02*
X97119046Y-31907200D01*
X97119046Y-31907200D02*
X97071427Y-31859580D01*
X96166665Y-31954819D02*
X96166665Y-30954819D01*
X96166665Y-31907200D02*
X96261903Y-31954819D01*
X96261903Y-31954819D02*
X96452379Y-31954819D01*
X96452379Y-31954819D02*
X96547617Y-31907200D01*
X96547617Y-31907200D02*
X96595236Y-31859580D01*
X96595236Y-31859580D02*
X96642855Y-31764342D01*
X96642855Y-31764342D02*
X96642855Y-31478628D01*
X96642855Y-31478628D02*
X96595236Y-31383390D01*
X96595236Y-31383390D02*
X96547617Y-31335771D01*
X96547617Y-31335771D02*
X96452379Y-31288152D01*
X96452379Y-31288152D02*
X96261903Y-31288152D01*
X96261903Y-31288152D02*
X96166665Y-31335771D01*
X95690474Y-31954819D02*
X95690474Y-31288152D01*
X95690474Y-30954819D02*
X95738093Y-31002438D01*
X95738093Y-31002438D02*
X95690474Y-31050057D01*
X95690474Y-31050057D02*
X95642855Y-31002438D01*
X95642855Y-31002438D02*
X95690474Y-30954819D01*
X95690474Y-30954819D02*
X95690474Y-31050057D01*
X95071427Y-31954819D02*
X95166665Y-31907200D01*
X95166665Y-31907200D02*
X95214284Y-31859580D01*
X95214284Y-31859580D02*
X95261903Y-31764342D01*
X95261903Y-31764342D02*
X95261903Y-31478628D01*
X95261903Y-31478628D02*
X95214284Y-31383390D01*
X95214284Y-31383390D02*
X95166665Y-31335771D01*
X95166665Y-31335771D02*
X95071427Y-31288152D01*
X95071427Y-31288152D02*
X94928570Y-31288152D01*
X94928570Y-31288152D02*
X94833332Y-31335771D01*
X94833332Y-31335771D02*
X94785713Y-31383390D01*
X94785713Y-31383390D02*
X94738094Y-31478628D01*
X94738094Y-31478628D02*
X94738094Y-31764342D01*
X94738094Y-31764342D02*
X94785713Y-31859580D01*
X94785713Y-31859580D02*
X94833332Y-31907200D01*
X94833332Y-31907200D02*
X94928570Y-31954819D01*
X94928570Y-31954819D02*
X95071427Y-31954819D01*
X101023808Y-32954819D02*
X100357142Y-33954819D01*
X100357142Y-32954819D02*
X101023808Y-33954819D01*
X99976189Y-33954819D02*
X99976189Y-32954819D01*
X99547618Y-33669104D02*
X99071428Y-33669104D01*
X99642856Y-33954819D02*
X99309523Y-32954819D01*
X99309523Y-32954819D02*
X98976190Y-33954819D01*
X98452380Y-32954819D02*
X98261904Y-32954819D01*
X98261904Y-32954819D02*
X98166666Y-33002438D01*
X98166666Y-33002438D02*
X98071428Y-33097676D01*
X98071428Y-33097676D02*
X98023809Y-33288152D01*
X98023809Y-33288152D02*
X98023809Y-33621485D01*
X98023809Y-33621485D02*
X98071428Y-33811961D01*
X98071428Y-33811961D02*
X98166666Y-33907200D01*
X98166666Y-33907200D02*
X98261904Y-33954819D01*
X98261904Y-33954819D02*
X98452380Y-33954819D01*
X98452380Y-33954819D02*
X98547618Y-33907200D01*
X98547618Y-33907200D02*
X98642856Y-33811961D01*
X98642856Y-33811961D02*
X98690475Y-33621485D01*
X98690475Y-33621485D02*
X98690475Y-33288152D01*
X98690475Y-33288152D02*
X98642856Y-33097676D01*
X98642856Y-33097676D02*
X98547618Y-33002438D01*
X98547618Y-33002438D02*
X98452380Y-32954819D01*
%TO.C,U1*%
D12*
X108400000Y-24500000D02*
X108400000Y-41500000D01*
X106400000Y-43500000D02*
X92600000Y-43500000D01*
X104000000Y-21075970D02*
X95000000Y-21075970D01*
X104000000Y-28429270D02*
X104000000Y-21075970D01*
X95000000Y-21075970D02*
X95000000Y-28429270D01*
X95000000Y-28429270D02*
X104000000Y-28429270D01*
X92600000Y-22500910D02*
X106400000Y-22500910D01*
X90600000Y-41500000D02*
X90600000Y-24500000D01*
D13*
X106400000Y-22500000D02*
G75*
G02*
X108400000Y-24500000I-44612J-2044612D01*
G01*
X108400000Y-41500000D02*
G75*
G02*
X106400000Y-43500000I-2044857J44857D01*
G01*
X90600000Y-24500000D02*
G75*
G02*
X92600000Y-22500000I2044610J-44610D01*
G01*
X92600000Y-43500000D02*
G75*
G02*
X90600000Y-41500000I0J2000000D01*
G01*
D14*
X110627000Y-24200000D02*
G75*
G02*
X110373000Y-24200000I-127000J0D01*
G01*
X110373000Y-24200000D02*
G75*
G02*
X110627000Y-24200000I127000J0D01*
G01*
D15*
X108387715Y-24438295D02*
X108384667Y-24389527D01*
X108380603Y-24340506D01*
X108387715Y-24438295D01*
X90610508Y-41521574D02*
X90612287Y-41570850D01*
X90615335Y-41619618D01*
X90619399Y-41668639D01*
X90624732Y-41717407D01*
X90631336Y-41766175D01*
X90638956Y-41814690D01*
X90647847Y-41862950D01*
X90657752Y-41910955D01*
X90610508Y-41521574D01*
%TD*%
M02*
