%TF.GenerationSoftware,KiCad,Pcbnew,10.0.3*%
%TF.CreationDate,2026-06-04T15:17:12-04:00*%
%TF.ProjectId,PCB,5043422e-6b69-4636-9164-5f7063625858,rev?*%
%TF.SameCoordinates,Original*%
%TF.FileFunction,Legend,Top*%
%TF.FilePolarity,Positive*%
%FSLAX46Y46*%
G04 Gerber Fmt 4.6, Leading zero omitted, Abs format (unit mm)*
G04 Created by KiCad (PCBNEW 10.0.3) date 2026-06-04 15:17:12*
%MOMM*%
%LPD*%
G01*
G04 APERTURE LIST*
%ADD10C,0.150000*%
%ADD11C,0.120000*%
G04 APERTURE END LIST*
D10*
X154238095Y-104504819D02*
X154238095Y-103504819D01*
X154238095Y-103981009D02*
X154809523Y-103981009D01*
X154809523Y-104504819D02*
X154809523Y-103504819D01*
X155714285Y-103838152D02*
X155714285Y-104504819D01*
X155476190Y-103457200D02*
X155238095Y-104171485D01*
X155238095Y-104171485D02*
X155857142Y-104171485D01*
X64238095Y-104504819D02*
X64238095Y-103504819D01*
X64238095Y-103981009D02*
X64809523Y-103981009D01*
X64809523Y-104504819D02*
X64809523Y-103504819D01*
X65190476Y-103504819D02*
X65809523Y-103504819D01*
X65809523Y-103504819D02*
X65476190Y-103885771D01*
X65476190Y-103885771D02*
X65619047Y-103885771D01*
X65619047Y-103885771D02*
X65714285Y-103933390D01*
X65714285Y-103933390D02*
X65761904Y-103981009D01*
X65761904Y-103981009D02*
X65809523Y-104076247D01*
X65809523Y-104076247D02*
X65809523Y-104314342D01*
X65809523Y-104314342D02*
X65761904Y-104409580D01*
X65761904Y-104409580D02*
X65714285Y-104457200D01*
X65714285Y-104457200D02*
X65619047Y-104504819D01*
X65619047Y-104504819D02*
X65333333Y-104504819D01*
X65333333Y-104504819D02*
X65238095Y-104457200D01*
X65238095Y-104457200D02*
X65190476Y-104409580D01*
X63238095Y-23504819D02*
X63238095Y-22504819D01*
X63238095Y-22981009D02*
X63809523Y-22981009D01*
X63809523Y-23504819D02*
X63809523Y-22504819D01*
X64238095Y-22600057D02*
X64285714Y-22552438D01*
X64285714Y-22552438D02*
X64380952Y-22504819D01*
X64380952Y-22504819D02*
X64619047Y-22504819D01*
X64619047Y-22504819D02*
X64714285Y-22552438D01*
X64714285Y-22552438D02*
X64761904Y-22600057D01*
X64761904Y-22600057D02*
X64809523Y-22695295D01*
X64809523Y-22695295D02*
X64809523Y-22790533D01*
X64809523Y-22790533D02*
X64761904Y-22933390D01*
X64761904Y-22933390D02*
X64190476Y-23504819D01*
X64190476Y-23504819D02*
X64809523Y-23504819D01*
X155238095Y-24504819D02*
X155238095Y-23504819D01*
X155238095Y-23981009D02*
X155809523Y-23981009D01*
X155809523Y-24504819D02*
X155809523Y-23504819D01*
X156809523Y-24504819D02*
X156238095Y-24504819D01*
X156523809Y-24504819D02*
X156523809Y-23504819D01*
X156523809Y-23504819D02*
X156428571Y-23647676D01*
X156428571Y-23647676D02*
X156333333Y-23742914D01*
X156333333Y-23742914D02*
X156238095Y-23790533D01*
X127880714Y-93854819D02*
X127880714Y-92854819D01*
X127880714Y-92854819D02*
X128118809Y-92854819D01*
X128118809Y-92854819D02*
X128261666Y-92902438D01*
X128261666Y-92902438D02*
X128356904Y-92997676D01*
X128356904Y-92997676D02*
X128404523Y-93092914D01*
X128404523Y-93092914D02*
X128452142Y-93283390D01*
X128452142Y-93283390D02*
X128452142Y-93426247D01*
X128452142Y-93426247D02*
X128404523Y-93616723D01*
X128404523Y-93616723D02*
X128356904Y-93711961D01*
X128356904Y-93711961D02*
X128261666Y-93807200D01*
X128261666Y-93807200D02*
X128118809Y-93854819D01*
X128118809Y-93854819D02*
X127880714Y-93854819D01*
X129404523Y-93854819D02*
X128833095Y-93854819D01*
X129118809Y-93854819D02*
X129118809Y-92854819D01*
X129118809Y-92854819D02*
X129023571Y-92997676D01*
X129023571Y-92997676D02*
X128928333Y-93092914D01*
X128928333Y-93092914D02*
X128833095Y-93140533D01*
X130261666Y-92854819D02*
X130071190Y-92854819D01*
X130071190Y-92854819D02*
X129975952Y-92902438D01*
X129975952Y-92902438D02*
X129928333Y-92950057D01*
X129928333Y-92950057D02*
X129833095Y-93092914D01*
X129833095Y-93092914D02*
X129785476Y-93283390D01*
X129785476Y-93283390D02*
X129785476Y-93664342D01*
X129785476Y-93664342D02*
X129833095Y-93759580D01*
X129833095Y-93759580D02*
X129880714Y-93807200D01*
X129880714Y-93807200D02*
X129975952Y-93854819D01*
X129975952Y-93854819D02*
X130166428Y-93854819D01*
X130166428Y-93854819D02*
X130261666Y-93807200D01*
X130261666Y-93807200D02*
X130309285Y-93759580D01*
X130309285Y-93759580D02*
X130356904Y-93664342D01*
X130356904Y-93664342D02*
X130356904Y-93426247D01*
X130356904Y-93426247D02*
X130309285Y-93331009D01*
X130309285Y-93331009D02*
X130261666Y-93283390D01*
X130261666Y-93283390D02*
X130166428Y-93235771D01*
X130166428Y-93235771D02*
X129975952Y-93235771D01*
X129975952Y-93235771D02*
X129880714Y-93283390D01*
X129880714Y-93283390D02*
X129833095Y-93331009D01*
X129833095Y-93331009D02*
X129785476Y-93426247D01*
X111809285Y-98145180D02*
X111809285Y-99145180D01*
X111809285Y-99145180D02*
X111571190Y-99145180D01*
X111571190Y-99145180D02*
X111428333Y-99097561D01*
X111428333Y-99097561D02*
X111333095Y-99002323D01*
X111333095Y-99002323D02*
X111285476Y-98907085D01*
X111285476Y-98907085D02*
X111237857Y-98716609D01*
X111237857Y-98716609D02*
X111237857Y-98573752D01*
X111237857Y-98573752D02*
X111285476Y-98383276D01*
X111285476Y-98383276D02*
X111333095Y-98288038D01*
X111333095Y-98288038D02*
X111428333Y-98192800D01*
X111428333Y-98192800D02*
X111571190Y-98145180D01*
X111571190Y-98145180D02*
X111809285Y-98145180D01*
X110285476Y-98145180D02*
X110856904Y-98145180D01*
X110571190Y-98145180D02*
X110571190Y-99145180D01*
X110571190Y-99145180D02*
X110666428Y-99002323D01*
X110666428Y-99002323D02*
X110761666Y-98907085D01*
X110761666Y-98907085D02*
X110856904Y-98859466D01*
X109952142Y-99145180D02*
X109285476Y-99145180D01*
X109285476Y-99145180D02*
X109714047Y-98145180D01*
X89785714Y-93854819D02*
X89785714Y-92854819D01*
X89785714Y-92854819D02*
X90023809Y-92854819D01*
X90023809Y-92854819D02*
X90166666Y-92902438D01*
X90166666Y-92902438D02*
X90261904Y-92997676D01*
X90261904Y-92997676D02*
X90309523Y-93092914D01*
X90309523Y-93092914D02*
X90357142Y-93283390D01*
X90357142Y-93283390D02*
X90357142Y-93426247D01*
X90357142Y-93426247D02*
X90309523Y-93616723D01*
X90309523Y-93616723D02*
X90261904Y-93711961D01*
X90261904Y-93711961D02*
X90166666Y-93807200D01*
X90166666Y-93807200D02*
X90023809Y-93854819D01*
X90023809Y-93854819D02*
X89785714Y-93854819D01*
X91309523Y-93854819D02*
X90738095Y-93854819D01*
X91023809Y-93854819D02*
X91023809Y-92854819D01*
X91023809Y-92854819D02*
X90928571Y-92997676D01*
X90928571Y-92997676D02*
X90833333Y-93092914D01*
X90833333Y-93092914D02*
X90738095Y-93140533D01*
X91880952Y-93283390D02*
X91785714Y-93235771D01*
X91785714Y-93235771D02*
X91738095Y-93188152D01*
X91738095Y-93188152D02*
X91690476Y-93092914D01*
X91690476Y-93092914D02*
X91690476Y-93045295D01*
X91690476Y-93045295D02*
X91738095Y-92950057D01*
X91738095Y-92950057D02*
X91785714Y-92902438D01*
X91785714Y-92902438D02*
X91880952Y-92854819D01*
X91880952Y-92854819D02*
X92071428Y-92854819D01*
X92071428Y-92854819D02*
X92166666Y-92902438D01*
X92166666Y-92902438D02*
X92214285Y-92950057D01*
X92214285Y-92950057D02*
X92261904Y-93045295D01*
X92261904Y-93045295D02*
X92261904Y-93092914D01*
X92261904Y-93092914D02*
X92214285Y-93188152D01*
X92214285Y-93188152D02*
X92166666Y-93235771D01*
X92166666Y-93235771D02*
X92071428Y-93283390D01*
X92071428Y-93283390D02*
X91880952Y-93283390D01*
X91880952Y-93283390D02*
X91785714Y-93331009D01*
X91785714Y-93331009D02*
X91738095Y-93378628D01*
X91738095Y-93378628D02*
X91690476Y-93473866D01*
X91690476Y-93473866D02*
X91690476Y-93664342D01*
X91690476Y-93664342D02*
X91738095Y-93759580D01*
X91738095Y-93759580D02*
X91785714Y-93807200D01*
X91785714Y-93807200D02*
X91880952Y-93854819D01*
X91880952Y-93854819D02*
X92071428Y-93854819D01*
X92071428Y-93854819D02*
X92166666Y-93807200D01*
X92166666Y-93807200D02*
X92214285Y-93759580D01*
X92214285Y-93759580D02*
X92261904Y-93664342D01*
X92261904Y-93664342D02*
X92261904Y-93473866D01*
X92261904Y-93473866D02*
X92214285Y-93378628D01*
X92214285Y-93378628D02*
X92166666Y-93331009D01*
X92166666Y-93331009D02*
X92071428Y-93283390D01*
X127880714Y-74854819D02*
X127880714Y-73854819D01*
X127880714Y-73854819D02*
X128118809Y-73854819D01*
X128118809Y-73854819D02*
X128261666Y-73902438D01*
X128261666Y-73902438D02*
X128356904Y-73997676D01*
X128356904Y-73997676D02*
X128404523Y-74092914D01*
X128404523Y-74092914D02*
X128452142Y-74283390D01*
X128452142Y-74283390D02*
X128452142Y-74426247D01*
X128452142Y-74426247D02*
X128404523Y-74616723D01*
X128404523Y-74616723D02*
X128356904Y-74711961D01*
X128356904Y-74711961D02*
X128261666Y-74807200D01*
X128261666Y-74807200D02*
X128118809Y-74854819D01*
X128118809Y-74854819D02*
X127880714Y-74854819D01*
X129404523Y-74854819D02*
X128833095Y-74854819D01*
X129118809Y-74854819D02*
X129118809Y-73854819D01*
X129118809Y-73854819D02*
X129023571Y-73997676D01*
X129023571Y-73997676D02*
X128928333Y-74092914D01*
X128928333Y-74092914D02*
X128833095Y-74140533D01*
X129737857Y-73854819D02*
X130356904Y-73854819D01*
X130356904Y-73854819D02*
X130023571Y-74235771D01*
X130023571Y-74235771D02*
X130166428Y-74235771D01*
X130166428Y-74235771D02*
X130261666Y-74283390D01*
X130261666Y-74283390D02*
X130309285Y-74331009D01*
X130309285Y-74331009D02*
X130356904Y-74426247D01*
X130356904Y-74426247D02*
X130356904Y-74664342D01*
X130356904Y-74664342D02*
X130309285Y-74759580D01*
X130309285Y-74759580D02*
X130261666Y-74807200D01*
X130261666Y-74807200D02*
X130166428Y-74854819D01*
X130166428Y-74854819D02*
X129880714Y-74854819D01*
X129880714Y-74854819D02*
X129785476Y-74807200D01*
X129785476Y-74807200D02*
X129737857Y-74759580D01*
X111714285Y-79145180D02*
X111714285Y-80145180D01*
X111714285Y-80145180D02*
X111476190Y-80145180D01*
X111476190Y-80145180D02*
X111333333Y-80097561D01*
X111333333Y-80097561D02*
X111238095Y-80002323D01*
X111238095Y-80002323D02*
X111190476Y-79907085D01*
X111190476Y-79907085D02*
X111142857Y-79716609D01*
X111142857Y-79716609D02*
X111142857Y-79573752D01*
X111142857Y-79573752D02*
X111190476Y-79383276D01*
X111190476Y-79383276D02*
X111238095Y-79288038D01*
X111238095Y-79288038D02*
X111333333Y-79192800D01*
X111333333Y-79192800D02*
X111476190Y-79145180D01*
X111476190Y-79145180D02*
X111714285Y-79145180D01*
X110190476Y-79145180D02*
X110761904Y-79145180D01*
X110476190Y-79145180D02*
X110476190Y-80145180D01*
X110476190Y-80145180D02*
X110571428Y-80002323D01*
X110571428Y-80002323D02*
X110666666Y-79907085D01*
X110666666Y-79907085D02*
X110761904Y-79859466D01*
X109333333Y-79811847D02*
X109333333Y-79145180D01*
X109571428Y-80192800D02*
X109809523Y-79478514D01*
X109809523Y-79478514D02*
X109190476Y-79478514D01*
X89785714Y-74854819D02*
X89785714Y-73854819D01*
X89785714Y-73854819D02*
X90023809Y-73854819D01*
X90023809Y-73854819D02*
X90166666Y-73902438D01*
X90166666Y-73902438D02*
X90261904Y-73997676D01*
X90261904Y-73997676D02*
X90309523Y-74092914D01*
X90309523Y-74092914D02*
X90357142Y-74283390D01*
X90357142Y-74283390D02*
X90357142Y-74426247D01*
X90357142Y-74426247D02*
X90309523Y-74616723D01*
X90309523Y-74616723D02*
X90261904Y-74711961D01*
X90261904Y-74711961D02*
X90166666Y-74807200D01*
X90166666Y-74807200D02*
X90023809Y-74854819D01*
X90023809Y-74854819D02*
X89785714Y-74854819D01*
X91309523Y-74854819D02*
X90738095Y-74854819D01*
X91023809Y-74854819D02*
X91023809Y-73854819D01*
X91023809Y-73854819D02*
X90928571Y-73997676D01*
X90928571Y-73997676D02*
X90833333Y-74092914D01*
X90833333Y-74092914D02*
X90738095Y-74140533D01*
X92214285Y-73854819D02*
X91738095Y-73854819D01*
X91738095Y-73854819D02*
X91690476Y-74331009D01*
X91690476Y-74331009D02*
X91738095Y-74283390D01*
X91738095Y-74283390D02*
X91833333Y-74235771D01*
X91833333Y-74235771D02*
X92071428Y-74235771D01*
X92071428Y-74235771D02*
X92166666Y-74283390D01*
X92166666Y-74283390D02*
X92214285Y-74331009D01*
X92214285Y-74331009D02*
X92261904Y-74426247D01*
X92261904Y-74426247D02*
X92261904Y-74664342D01*
X92261904Y-74664342D02*
X92214285Y-74759580D01*
X92214285Y-74759580D02*
X92166666Y-74807200D01*
X92166666Y-74807200D02*
X92071428Y-74854819D01*
X92071428Y-74854819D02*
X91833333Y-74854819D01*
X91833333Y-74854819D02*
X91738095Y-74807200D01*
X91738095Y-74807200D02*
X91690476Y-74759580D01*
X127880714Y-55854819D02*
X127880714Y-54854819D01*
X127880714Y-54854819D02*
X128118809Y-54854819D01*
X128118809Y-54854819D02*
X128261666Y-54902438D01*
X128261666Y-54902438D02*
X128356904Y-54997676D01*
X128356904Y-54997676D02*
X128404523Y-55092914D01*
X128404523Y-55092914D02*
X128452142Y-55283390D01*
X128452142Y-55283390D02*
X128452142Y-55426247D01*
X128452142Y-55426247D02*
X128404523Y-55616723D01*
X128404523Y-55616723D02*
X128356904Y-55711961D01*
X128356904Y-55711961D02*
X128261666Y-55807200D01*
X128261666Y-55807200D02*
X128118809Y-55854819D01*
X128118809Y-55854819D02*
X127880714Y-55854819D01*
X129404523Y-55854819D02*
X128833095Y-55854819D01*
X129118809Y-55854819D02*
X129118809Y-54854819D01*
X129118809Y-54854819D02*
X129023571Y-54997676D01*
X129023571Y-54997676D02*
X128928333Y-55092914D01*
X128928333Y-55092914D02*
X128833095Y-55140533D01*
X130023571Y-54854819D02*
X130118809Y-54854819D01*
X130118809Y-54854819D02*
X130214047Y-54902438D01*
X130214047Y-54902438D02*
X130261666Y-54950057D01*
X130261666Y-54950057D02*
X130309285Y-55045295D01*
X130309285Y-55045295D02*
X130356904Y-55235771D01*
X130356904Y-55235771D02*
X130356904Y-55473866D01*
X130356904Y-55473866D02*
X130309285Y-55664342D01*
X130309285Y-55664342D02*
X130261666Y-55759580D01*
X130261666Y-55759580D02*
X130214047Y-55807200D01*
X130214047Y-55807200D02*
X130118809Y-55854819D01*
X130118809Y-55854819D02*
X130023571Y-55854819D01*
X130023571Y-55854819D02*
X129928333Y-55807200D01*
X129928333Y-55807200D02*
X129880714Y-55759580D01*
X129880714Y-55759580D02*
X129833095Y-55664342D01*
X129833095Y-55664342D02*
X129785476Y-55473866D01*
X129785476Y-55473866D02*
X129785476Y-55235771D01*
X129785476Y-55235771D02*
X129833095Y-55045295D01*
X129833095Y-55045295D02*
X129880714Y-54950057D01*
X129880714Y-54950057D02*
X129928333Y-54902438D01*
X129928333Y-54902438D02*
X130023571Y-54854819D01*
X111309285Y-60145180D02*
X111309285Y-61145180D01*
X111309285Y-61145180D02*
X111071190Y-61145180D01*
X111071190Y-61145180D02*
X110928333Y-61097561D01*
X110928333Y-61097561D02*
X110833095Y-61002323D01*
X110833095Y-61002323D02*
X110785476Y-60907085D01*
X110785476Y-60907085D02*
X110737857Y-60716609D01*
X110737857Y-60716609D02*
X110737857Y-60573752D01*
X110737857Y-60573752D02*
X110785476Y-60383276D01*
X110785476Y-60383276D02*
X110833095Y-60288038D01*
X110833095Y-60288038D02*
X110928333Y-60192800D01*
X110928333Y-60192800D02*
X111071190Y-60145180D01*
X111071190Y-60145180D02*
X111309285Y-60145180D01*
X109785476Y-60145180D02*
X110356904Y-60145180D01*
X110071190Y-60145180D02*
X110071190Y-61145180D01*
X110071190Y-61145180D02*
X110166428Y-61002323D01*
X110166428Y-61002323D02*
X110261666Y-60907085D01*
X110261666Y-60907085D02*
X110356904Y-60859466D01*
X108833095Y-60145180D02*
X109404523Y-60145180D01*
X109118809Y-60145180D02*
X109118809Y-61145180D01*
X109118809Y-61145180D02*
X109214047Y-61002323D01*
X109214047Y-61002323D02*
X109309285Y-60907085D01*
X109309285Y-60907085D02*
X109404523Y-60859466D01*
X89571667Y-46073200D02*
X89714524Y-46120819D01*
X89714524Y-46120819D02*
X89952619Y-46120819D01*
X89952619Y-46120819D02*
X90047857Y-46073200D01*
X90047857Y-46073200D02*
X90095476Y-46025580D01*
X90095476Y-46025580D02*
X90143095Y-45930342D01*
X90143095Y-45930342D02*
X90143095Y-45835104D01*
X90143095Y-45835104D02*
X90095476Y-45739866D01*
X90095476Y-45739866D02*
X90047857Y-45692247D01*
X90047857Y-45692247D02*
X89952619Y-45644628D01*
X89952619Y-45644628D02*
X89762143Y-45597009D01*
X89762143Y-45597009D02*
X89666905Y-45549390D01*
X89666905Y-45549390D02*
X89619286Y-45501771D01*
X89619286Y-45501771D02*
X89571667Y-45406533D01*
X89571667Y-45406533D02*
X89571667Y-45311295D01*
X89571667Y-45311295D02*
X89619286Y-45216057D01*
X89619286Y-45216057D02*
X89666905Y-45168438D01*
X89666905Y-45168438D02*
X89762143Y-45120819D01*
X89762143Y-45120819D02*
X90000238Y-45120819D01*
X90000238Y-45120819D02*
X90143095Y-45168438D01*
X90476429Y-45120819D02*
X90714524Y-46120819D01*
X90714524Y-46120819D02*
X90905000Y-45406533D01*
X90905000Y-45406533D02*
X91095476Y-46120819D01*
X91095476Y-46120819D02*
X91333572Y-45120819D01*
X92238333Y-46120819D02*
X91666905Y-46120819D01*
X91952619Y-46120819D02*
X91952619Y-45120819D01*
X91952619Y-45120819D02*
X91857381Y-45263676D01*
X91857381Y-45263676D02*
X91762143Y-45358914D01*
X91762143Y-45358914D02*
X91666905Y-45406533D01*
X89761667Y-84033200D02*
X89904524Y-84080819D01*
X89904524Y-84080819D02*
X90142619Y-84080819D01*
X90142619Y-84080819D02*
X90237857Y-84033200D01*
X90237857Y-84033200D02*
X90285476Y-83985580D01*
X90285476Y-83985580D02*
X90333095Y-83890342D01*
X90333095Y-83890342D02*
X90333095Y-83795104D01*
X90333095Y-83795104D02*
X90285476Y-83699866D01*
X90285476Y-83699866D02*
X90237857Y-83652247D01*
X90237857Y-83652247D02*
X90142619Y-83604628D01*
X90142619Y-83604628D02*
X89952143Y-83557009D01*
X89952143Y-83557009D02*
X89856905Y-83509390D01*
X89856905Y-83509390D02*
X89809286Y-83461771D01*
X89809286Y-83461771D02*
X89761667Y-83366533D01*
X89761667Y-83366533D02*
X89761667Y-83271295D01*
X89761667Y-83271295D02*
X89809286Y-83176057D01*
X89809286Y-83176057D02*
X89856905Y-83128438D01*
X89856905Y-83128438D02*
X89952143Y-83080819D01*
X89952143Y-83080819D02*
X90190238Y-83080819D01*
X90190238Y-83080819D02*
X90333095Y-83128438D01*
X90666429Y-83080819D02*
X90904524Y-84080819D01*
X90904524Y-84080819D02*
X91095000Y-83366533D01*
X91095000Y-83366533D02*
X91285476Y-84080819D01*
X91285476Y-84080819D02*
X91523572Y-83080819D01*
X91809286Y-83080819D02*
X92428333Y-83080819D01*
X92428333Y-83080819D02*
X92095000Y-83461771D01*
X92095000Y-83461771D02*
X92237857Y-83461771D01*
X92237857Y-83461771D02*
X92333095Y-83509390D01*
X92333095Y-83509390D02*
X92380714Y-83557009D01*
X92380714Y-83557009D02*
X92428333Y-83652247D01*
X92428333Y-83652247D02*
X92428333Y-83890342D01*
X92428333Y-83890342D02*
X92380714Y-83985580D01*
X92380714Y-83985580D02*
X92333095Y-84033200D01*
X92333095Y-84033200D02*
X92237857Y-84080819D01*
X92237857Y-84080819D02*
X91952143Y-84080819D01*
X91952143Y-84080819D02*
X91856905Y-84033200D01*
X91856905Y-84033200D02*
X91809286Y-83985580D01*
X136334819Y-77738094D02*
X135334819Y-77738094D01*
X135334819Y-77738094D02*
X135334819Y-77499999D01*
X135334819Y-77499999D02*
X135382438Y-77357142D01*
X135382438Y-77357142D02*
X135477676Y-77261904D01*
X135477676Y-77261904D02*
X135572914Y-77214285D01*
X135572914Y-77214285D02*
X135763390Y-77166666D01*
X135763390Y-77166666D02*
X135906247Y-77166666D01*
X135906247Y-77166666D02*
X136096723Y-77214285D01*
X136096723Y-77214285D02*
X136191961Y-77261904D01*
X136191961Y-77261904D02*
X136287200Y-77357142D01*
X136287200Y-77357142D02*
X136334819Y-77499999D01*
X136334819Y-77499999D02*
X136334819Y-77738094D01*
X135334819Y-76309523D02*
X135334819Y-76499999D01*
X135334819Y-76499999D02*
X135382438Y-76595237D01*
X135382438Y-76595237D02*
X135430057Y-76642856D01*
X135430057Y-76642856D02*
X135572914Y-76738094D01*
X135572914Y-76738094D02*
X135763390Y-76785713D01*
X135763390Y-76785713D02*
X136144342Y-76785713D01*
X136144342Y-76785713D02*
X136239580Y-76738094D01*
X136239580Y-76738094D02*
X136287200Y-76690475D01*
X136287200Y-76690475D02*
X136334819Y-76595237D01*
X136334819Y-76595237D02*
X136334819Y-76404761D01*
X136334819Y-76404761D02*
X136287200Y-76309523D01*
X136287200Y-76309523D02*
X136239580Y-76261904D01*
X136239580Y-76261904D02*
X136144342Y-76214285D01*
X136144342Y-76214285D02*
X135906247Y-76214285D01*
X135906247Y-76214285D02*
X135811009Y-76261904D01*
X135811009Y-76261904D02*
X135763390Y-76309523D01*
X135763390Y-76309523D02*
X135715771Y-76404761D01*
X135715771Y-76404761D02*
X135715771Y-76595237D01*
X135715771Y-76595237D02*
X135763390Y-76690475D01*
X135763390Y-76690475D02*
X135811009Y-76738094D01*
X135811009Y-76738094D02*
X135906247Y-76785713D01*
X136654819Y-81071904D02*
X135654819Y-81071904D01*
X136654819Y-80500476D02*
X136083390Y-80929047D01*
X135654819Y-80500476D02*
X136226247Y-81071904D01*
X127761667Y-46073200D02*
X127904524Y-46120819D01*
X127904524Y-46120819D02*
X128142619Y-46120819D01*
X128142619Y-46120819D02*
X128237857Y-46073200D01*
X128237857Y-46073200D02*
X128285476Y-46025580D01*
X128285476Y-46025580D02*
X128333095Y-45930342D01*
X128333095Y-45930342D02*
X128333095Y-45835104D01*
X128333095Y-45835104D02*
X128285476Y-45739866D01*
X128285476Y-45739866D02*
X128237857Y-45692247D01*
X128237857Y-45692247D02*
X128142619Y-45644628D01*
X128142619Y-45644628D02*
X127952143Y-45597009D01*
X127952143Y-45597009D02*
X127856905Y-45549390D01*
X127856905Y-45549390D02*
X127809286Y-45501771D01*
X127809286Y-45501771D02*
X127761667Y-45406533D01*
X127761667Y-45406533D02*
X127761667Y-45311295D01*
X127761667Y-45311295D02*
X127809286Y-45216057D01*
X127809286Y-45216057D02*
X127856905Y-45168438D01*
X127856905Y-45168438D02*
X127952143Y-45120819D01*
X127952143Y-45120819D02*
X128190238Y-45120819D01*
X128190238Y-45120819D02*
X128333095Y-45168438D01*
X128666429Y-45120819D02*
X128904524Y-46120819D01*
X128904524Y-46120819D02*
X129095000Y-45406533D01*
X129095000Y-45406533D02*
X129285476Y-46120819D01*
X129285476Y-46120819D02*
X129523572Y-45120819D01*
X129809286Y-45120819D02*
X130475952Y-45120819D01*
X130475952Y-45120819D02*
X130047381Y-46120819D01*
X136334819Y-58738094D02*
X135334819Y-58738094D01*
X135334819Y-58738094D02*
X135334819Y-58499999D01*
X135334819Y-58499999D02*
X135382438Y-58357142D01*
X135382438Y-58357142D02*
X135477676Y-58261904D01*
X135477676Y-58261904D02*
X135572914Y-58214285D01*
X135572914Y-58214285D02*
X135763390Y-58166666D01*
X135763390Y-58166666D02*
X135906247Y-58166666D01*
X135906247Y-58166666D02*
X136096723Y-58214285D01*
X136096723Y-58214285D02*
X136191961Y-58261904D01*
X136191961Y-58261904D02*
X136287200Y-58357142D01*
X136287200Y-58357142D02*
X136334819Y-58499999D01*
X136334819Y-58499999D02*
X136334819Y-58738094D01*
X135334819Y-57833332D02*
X135334819Y-57214285D01*
X135334819Y-57214285D02*
X135715771Y-57547618D01*
X135715771Y-57547618D02*
X135715771Y-57404761D01*
X135715771Y-57404761D02*
X135763390Y-57309523D01*
X135763390Y-57309523D02*
X135811009Y-57261904D01*
X135811009Y-57261904D02*
X135906247Y-57214285D01*
X135906247Y-57214285D02*
X136144342Y-57214285D01*
X136144342Y-57214285D02*
X136239580Y-57261904D01*
X136239580Y-57261904D02*
X136287200Y-57309523D01*
X136287200Y-57309523D02*
X136334819Y-57404761D01*
X136334819Y-57404761D02*
X136334819Y-57690475D01*
X136334819Y-57690475D02*
X136287200Y-57785713D01*
X136287200Y-57785713D02*
X136239580Y-57833332D01*
X136654819Y-62071904D02*
X135654819Y-62071904D01*
X136654819Y-61500476D02*
X136083390Y-61929047D01*
X135654819Y-61500476D02*
X136226247Y-62071904D01*
X117834819Y-58738094D02*
X116834819Y-58738094D01*
X116834819Y-58738094D02*
X116834819Y-58499999D01*
X116834819Y-58499999D02*
X116882438Y-58357142D01*
X116882438Y-58357142D02*
X116977676Y-58261904D01*
X116977676Y-58261904D02*
X117072914Y-58214285D01*
X117072914Y-58214285D02*
X117263390Y-58166666D01*
X117263390Y-58166666D02*
X117406247Y-58166666D01*
X117406247Y-58166666D02*
X117596723Y-58214285D01*
X117596723Y-58214285D02*
X117691961Y-58261904D01*
X117691961Y-58261904D02*
X117787200Y-58357142D01*
X117787200Y-58357142D02*
X117834819Y-58499999D01*
X117834819Y-58499999D02*
X117834819Y-58738094D01*
X116930057Y-57785713D02*
X116882438Y-57738094D01*
X116882438Y-57738094D02*
X116834819Y-57642856D01*
X116834819Y-57642856D02*
X116834819Y-57404761D01*
X116834819Y-57404761D02*
X116882438Y-57309523D01*
X116882438Y-57309523D02*
X116930057Y-57261904D01*
X116930057Y-57261904D02*
X117025295Y-57214285D01*
X117025295Y-57214285D02*
X117120533Y-57214285D01*
X117120533Y-57214285D02*
X117263390Y-57261904D01*
X117263390Y-57261904D02*
X117834819Y-57833332D01*
X117834819Y-57833332D02*
X117834819Y-57214285D01*
X118154819Y-62071904D02*
X117154819Y-62071904D01*
X118154819Y-61500476D02*
X117583390Y-61929047D01*
X117154819Y-61500476D02*
X117726247Y-62071904D01*
X127761667Y-84033200D02*
X127904524Y-84080819D01*
X127904524Y-84080819D02*
X128142619Y-84080819D01*
X128142619Y-84080819D02*
X128237857Y-84033200D01*
X128237857Y-84033200D02*
X128285476Y-83985580D01*
X128285476Y-83985580D02*
X128333095Y-83890342D01*
X128333095Y-83890342D02*
X128333095Y-83795104D01*
X128333095Y-83795104D02*
X128285476Y-83699866D01*
X128285476Y-83699866D02*
X128237857Y-83652247D01*
X128237857Y-83652247D02*
X128142619Y-83604628D01*
X128142619Y-83604628D02*
X127952143Y-83557009D01*
X127952143Y-83557009D02*
X127856905Y-83509390D01*
X127856905Y-83509390D02*
X127809286Y-83461771D01*
X127809286Y-83461771D02*
X127761667Y-83366533D01*
X127761667Y-83366533D02*
X127761667Y-83271295D01*
X127761667Y-83271295D02*
X127809286Y-83176057D01*
X127809286Y-83176057D02*
X127856905Y-83128438D01*
X127856905Y-83128438D02*
X127952143Y-83080819D01*
X127952143Y-83080819D02*
X128190238Y-83080819D01*
X128190238Y-83080819D02*
X128333095Y-83128438D01*
X128666429Y-83080819D02*
X128904524Y-84080819D01*
X128904524Y-84080819D02*
X129095000Y-83366533D01*
X129095000Y-83366533D02*
X129285476Y-84080819D01*
X129285476Y-84080819D02*
X129523572Y-83080819D01*
X129952143Y-84080819D02*
X130142619Y-84080819D01*
X130142619Y-84080819D02*
X130237857Y-84033200D01*
X130237857Y-84033200D02*
X130285476Y-83985580D01*
X130285476Y-83985580D02*
X130380714Y-83842723D01*
X130380714Y-83842723D02*
X130428333Y-83652247D01*
X130428333Y-83652247D02*
X130428333Y-83271295D01*
X130428333Y-83271295D02*
X130380714Y-83176057D01*
X130380714Y-83176057D02*
X130333095Y-83128438D01*
X130333095Y-83128438D02*
X130237857Y-83080819D01*
X130237857Y-83080819D02*
X130047381Y-83080819D01*
X130047381Y-83080819D02*
X129952143Y-83128438D01*
X129952143Y-83128438D02*
X129904524Y-83176057D01*
X129904524Y-83176057D02*
X129856905Y-83271295D01*
X129856905Y-83271295D02*
X129856905Y-83509390D01*
X129856905Y-83509390D02*
X129904524Y-83604628D01*
X129904524Y-83604628D02*
X129952143Y-83652247D01*
X129952143Y-83652247D02*
X130047381Y-83699866D01*
X130047381Y-83699866D02*
X130237857Y-83699866D01*
X130237857Y-83699866D02*
X130333095Y-83652247D01*
X130333095Y-83652247D02*
X130380714Y-83604628D01*
X130380714Y-83604628D02*
X130428333Y-83509390D01*
X89626667Y-65033200D02*
X89769524Y-65080819D01*
X89769524Y-65080819D02*
X90007619Y-65080819D01*
X90007619Y-65080819D02*
X90102857Y-65033200D01*
X90102857Y-65033200D02*
X90150476Y-64985580D01*
X90150476Y-64985580D02*
X90198095Y-64890342D01*
X90198095Y-64890342D02*
X90198095Y-64795104D01*
X90198095Y-64795104D02*
X90150476Y-64699866D01*
X90150476Y-64699866D02*
X90102857Y-64652247D01*
X90102857Y-64652247D02*
X90007619Y-64604628D01*
X90007619Y-64604628D02*
X89817143Y-64557009D01*
X89817143Y-64557009D02*
X89721905Y-64509390D01*
X89721905Y-64509390D02*
X89674286Y-64461771D01*
X89674286Y-64461771D02*
X89626667Y-64366533D01*
X89626667Y-64366533D02*
X89626667Y-64271295D01*
X89626667Y-64271295D02*
X89674286Y-64176057D01*
X89674286Y-64176057D02*
X89721905Y-64128438D01*
X89721905Y-64128438D02*
X89817143Y-64080819D01*
X89817143Y-64080819D02*
X90055238Y-64080819D01*
X90055238Y-64080819D02*
X90198095Y-64128438D01*
X90531429Y-64080819D02*
X90769524Y-65080819D01*
X90769524Y-65080819D02*
X90960000Y-64366533D01*
X90960000Y-64366533D02*
X91150476Y-65080819D01*
X91150476Y-65080819D02*
X91388572Y-64080819D01*
X91721905Y-64176057D02*
X91769524Y-64128438D01*
X91769524Y-64128438D02*
X91864762Y-64080819D01*
X91864762Y-64080819D02*
X92102857Y-64080819D01*
X92102857Y-64080819D02*
X92198095Y-64128438D01*
X92198095Y-64128438D02*
X92245714Y-64176057D01*
X92245714Y-64176057D02*
X92293333Y-64271295D01*
X92293333Y-64271295D02*
X92293333Y-64366533D01*
X92293333Y-64366533D02*
X92245714Y-64509390D01*
X92245714Y-64509390D02*
X91674286Y-65080819D01*
X91674286Y-65080819D02*
X92293333Y-65080819D01*
X127681667Y-65033200D02*
X127824524Y-65080819D01*
X127824524Y-65080819D02*
X128062619Y-65080819D01*
X128062619Y-65080819D02*
X128157857Y-65033200D01*
X128157857Y-65033200D02*
X128205476Y-64985580D01*
X128205476Y-64985580D02*
X128253095Y-64890342D01*
X128253095Y-64890342D02*
X128253095Y-64795104D01*
X128253095Y-64795104D02*
X128205476Y-64699866D01*
X128205476Y-64699866D02*
X128157857Y-64652247D01*
X128157857Y-64652247D02*
X128062619Y-64604628D01*
X128062619Y-64604628D02*
X127872143Y-64557009D01*
X127872143Y-64557009D02*
X127776905Y-64509390D01*
X127776905Y-64509390D02*
X127729286Y-64461771D01*
X127729286Y-64461771D02*
X127681667Y-64366533D01*
X127681667Y-64366533D02*
X127681667Y-64271295D01*
X127681667Y-64271295D02*
X127729286Y-64176057D01*
X127729286Y-64176057D02*
X127776905Y-64128438D01*
X127776905Y-64128438D02*
X127872143Y-64080819D01*
X127872143Y-64080819D02*
X128110238Y-64080819D01*
X128110238Y-64080819D02*
X128253095Y-64128438D01*
X128586429Y-64080819D02*
X128824524Y-65080819D01*
X128824524Y-65080819D02*
X129015000Y-64366533D01*
X129015000Y-64366533D02*
X129205476Y-65080819D01*
X129205476Y-65080819D02*
X129443572Y-64080819D01*
X129967381Y-64509390D02*
X129872143Y-64461771D01*
X129872143Y-64461771D02*
X129824524Y-64414152D01*
X129824524Y-64414152D02*
X129776905Y-64318914D01*
X129776905Y-64318914D02*
X129776905Y-64271295D01*
X129776905Y-64271295D02*
X129824524Y-64176057D01*
X129824524Y-64176057D02*
X129872143Y-64128438D01*
X129872143Y-64128438D02*
X129967381Y-64080819D01*
X129967381Y-64080819D02*
X130157857Y-64080819D01*
X130157857Y-64080819D02*
X130253095Y-64128438D01*
X130253095Y-64128438D02*
X130300714Y-64176057D01*
X130300714Y-64176057D02*
X130348333Y-64271295D01*
X130348333Y-64271295D02*
X130348333Y-64318914D01*
X130348333Y-64318914D02*
X130300714Y-64414152D01*
X130300714Y-64414152D02*
X130253095Y-64461771D01*
X130253095Y-64461771D02*
X130157857Y-64509390D01*
X130157857Y-64509390D02*
X129967381Y-64509390D01*
X129967381Y-64509390D02*
X129872143Y-64557009D01*
X129872143Y-64557009D02*
X129824524Y-64604628D01*
X129824524Y-64604628D02*
X129776905Y-64699866D01*
X129776905Y-64699866D02*
X129776905Y-64890342D01*
X129776905Y-64890342D02*
X129824524Y-64985580D01*
X129824524Y-64985580D02*
X129872143Y-65033200D01*
X129872143Y-65033200D02*
X129967381Y-65080819D01*
X129967381Y-65080819D02*
X130157857Y-65080819D01*
X130157857Y-65080819D02*
X130253095Y-65033200D01*
X130253095Y-65033200D02*
X130300714Y-64985580D01*
X130300714Y-64985580D02*
X130348333Y-64890342D01*
X130348333Y-64890342D02*
X130348333Y-64699866D01*
X130348333Y-64699866D02*
X130300714Y-64604628D01*
X130300714Y-64604628D02*
X130253095Y-64557009D01*
X130253095Y-64557009D02*
X130157857Y-64509390D01*
X108761667Y-46073200D02*
X108904524Y-46120819D01*
X108904524Y-46120819D02*
X109142619Y-46120819D01*
X109142619Y-46120819D02*
X109237857Y-46073200D01*
X109237857Y-46073200D02*
X109285476Y-46025580D01*
X109285476Y-46025580D02*
X109333095Y-45930342D01*
X109333095Y-45930342D02*
X109333095Y-45835104D01*
X109333095Y-45835104D02*
X109285476Y-45739866D01*
X109285476Y-45739866D02*
X109237857Y-45692247D01*
X109237857Y-45692247D02*
X109142619Y-45644628D01*
X109142619Y-45644628D02*
X108952143Y-45597009D01*
X108952143Y-45597009D02*
X108856905Y-45549390D01*
X108856905Y-45549390D02*
X108809286Y-45501771D01*
X108809286Y-45501771D02*
X108761667Y-45406533D01*
X108761667Y-45406533D02*
X108761667Y-45311295D01*
X108761667Y-45311295D02*
X108809286Y-45216057D01*
X108809286Y-45216057D02*
X108856905Y-45168438D01*
X108856905Y-45168438D02*
X108952143Y-45120819D01*
X108952143Y-45120819D02*
X109190238Y-45120819D01*
X109190238Y-45120819D02*
X109333095Y-45168438D01*
X109666429Y-45120819D02*
X109904524Y-46120819D01*
X109904524Y-46120819D02*
X110095000Y-45406533D01*
X110095000Y-45406533D02*
X110285476Y-46120819D01*
X110285476Y-46120819D02*
X110523572Y-45120819D01*
X111333095Y-45454152D02*
X111333095Y-46120819D01*
X111095000Y-45073200D02*
X110856905Y-45787485D01*
X110856905Y-45787485D02*
X111475952Y-45787485D01*
X72990476Y-25807200D02*
X73133333Y-25854819D01*
X73133333Y-25854819D02*
X73371428Y-25854819D01*
X73371428Y-25854819D02*
X73466666Y-25807200D01*
X73466666Y-25807200D02*
X73514285Y-25759580D01*
X73514285Y-25759580D02*
X73561904Y-25664342D01*
X73561904Y-25664342D02*
X73561904Y-25569104D01*
X73561904Y-25569104D02*
X73514285Y-25473866D01*
X73514285Y-25473866D02*
X73466666Y-25426247D01*
X73466666Y-25426247D02*
X73371428Y-25378628D01*
X73371428Y-25378628D02*
X73180952Y-25331009D01*
X73180952Y-25331009D02*
X73085714Y-25283390D01*
X73085714Y-25283390D02*
X73038095Y-25235771D01*
X73038095Y-25235771D02*
X72990476Y-25140533D01*
X72990476Y-25140533D02*
X72990476Y-25045295D01*
X72990476Y-25045295D02*
X73038095Y-24950057D01*
X73038095Y-24950057D02*
X73085714Y-24902438D01*
X73085714Y-24902438D02*
X73180952Y-24854819D01*
X73180952Y-24854819D02*
X73419047Y-24854819D01*
X73419047Y-24854819D02*
X73561904Y-24902438D01*
X73895238Y-24854819D02*
X74133333Y-25854819D01*
X74133333Y-25854819D02*
X74323809Y-25140533D01*
X74323809Y-25140533D02*
X74514285Y-25854819D01*
X74514285Y-25854819D02*
X74752381Y-24854819D01*
X75657142Y-25854819D02*
X75085714Y-25854819D01*
X75371428Y-25854819D02*
X75371428Y-24854819D01*
X75371428Y-24854819D02*
X75276190Y-24997676D01*
X75276190Y-24997676D02*
X75180952Y-25092914D01*
X75180952Y-25092914D02*
X75085714Y-25140533D01*
X76276190Y-24854819D02*
X76371428Y-24854819D01*
X76371428Y-24854819D02*
X76466666Y-24902438D01*
X76466666Y-24902438D02*
X76514285Y-24950057D01*
X76514285Y-24950057D02*
X76561904Y-25045295D01*
X76561904Y-25045295D02*
X76609523Y-25235771D01*
X76609523Y-25235771D02*
X76609523Y-25473866D01*
X76609523Y-25473866D02*
X76561904Y-25664342D01*
X76561904Y-25664342D02*
X76514285Y-25759580D01*
X76514285Y-25759580D02*
X76466666Y-25807200D01*
X76466666Y-25807200D02*
X76371428Y-25854819D01*
X76371428Y-25854819D02*
X76276190Y-25854819D01*
X76276190Y-25854819D02*
X76180952Y-25807200D01*
X76180952Y-25807200D02*
X76133333Y-25759580D01*
X76133333Y-25759580D02*
X76085714Y-25664342D01*
X76085714Y-25664342D02*
X76038095Y-25473866D01*
X76038095Y-25473866D02*
X76038095Y-25235771D01*
X76038095Y-25235771D02*
X76085714Y-25045295D01*
X76085714Y-25045295D02*
X76133333Y-24950057D01*
X76133333Y-24950057D02*
X76180952Y-24902438D01*
X76180952Y-24902438D02*
X76276190Y-24854819D01*
X109454819Y-33071904D02*
X110264342Y-33071904D01*
X110264342Y-33071904D02*
X110359580Y-33024285D01*
X110359580Y-33024285D02*
X110407200Y-32976666D01*
X110407200Y-32976666D02*
X110454819Y-32881428D01*
X110454819Y-32881428D02*
X110454819Y-32690952D01*
X110454819Y-32690952D02*
X110407200Y-32595714D01*
X110407200Y-32595714D02*
X110359580Y-32548095D01*
X110359580Y-32548095D02*
X110264342Y-32500476D01*
X110264342Y-32500476D02*
X109454819Y-32500476D01*
X109550057Y-32071904D02*
X109502438Y-32024285D01*
X109502438Y-32024285D02*
X109454819Y-31929047D01*
X109454819Y-31929047D02*
X109454819Y-31690952D01*
X109454819Y-31690952D02*
X109502438Y-31595714D01*
X109502438Y-31595714D02*
X109550057Y-31548095D01*
X109550057Y-31548095D02*
X109645295Y-31500476D01*
X109645295Y-31500476D02*
X109740533Y-31500476D01*
X109740533Y-31500476D02*
X109883390Y-31548095D01*
X109883390Y-31548095D02*
X110454819Y-32119523D01*
X110454819Y-32119523D02*
X110454819Y-31500476D01*
X108841667Y-84033200D02*
X108984524Y-84080819D01*
X108984524Y-84080819D02*
X109222619Y-84080819D01*
X109222619Y-84080819D02*
X109317857Y-84033200D01*
X109317857Y-84033200D02*
X109365476Y-83985580D01*
X109365476Y-83985580D02*
X109413095Y-83890342D01*
X109413095Y-83890342D02*
X109413095Y-83795104D01*
X109413095Y-83795104D02*
X109365476Y-83699866D01*
X109365476Y-83699866D02*
X109317857Y-83652247D01*
X109317857Y-83652247D02*
X109222619Y-83604628D01*
X109222619Y-83604628D02*
X109032143Y-83557009D01*
X109032143Y-83557009D02*
X108936905Y-83509390D01*
X108936905Y-83509390D02*
X108889286Y-83461771D01*
X108889286Y-83461771D02*
X108841667Y-83366533D01*
X108841667Y-83366533D02*
X108841667Y-83271295D01*
X108841667Y-83271295D02*
X108889286Y-83176057D01*
X108889286Y-83176057D02*
X108936905Y-83128438D01*
X108936905Y-83128438D02*
X109032143Y-83080819D01*
X109032143Y-83080819D02*
X109270238Y-83080819D01*
X109270238Y-83080819D02*
X109413095Y-83128438D01*
X109746429Y-83080819D02*
X109984524Y-84080819D01*
X109984524Y-84080819D02*
X110175000Y-83366533D01*
X110175000Y-83366533D02*
X110365476Y-84080819D01*
X110365476Y-84080819D02*
X110603572Y-83080819D01*
X111413095Y-83080819D02*
X111222619Y-83080819D01*
X111222619Y-83080819D02*
X111127381Y-83128438D01*
X111127381Y-83128438D02*
X111079762Y-83176057D01*
X111079762Y-83176057D02*
X110984524Y-83318914D01*
X110984524Y-83318914D02*
X110936905Y-83509390D01*
X110936905Y-83509390D02*
X110936905Y-83890342D01*
X110936905Y-83890342D02*
X110984524Y-83985580D01*
X110984524Y-83985580D02*
X111032143Y-84033200D01*
X111032143Y-84033200D02*
X111127381Y-84080819D01*
X111127381Y-84080819D02*
X111317857Y-84080819D01*
X111317857Y-84080819D02*
X111413095Y-84033200D01*
X111413095Y-84033200D02*
X111460714Y-83985580D01*
X111460714Y-83985580D02*
X111508333Y-83890342D01*
X111508333Y-83890342D02*
X111508333Y-83652247D01*
X111508333Y-83652247D02*
X111460714Y-83557009D01*
X111460714Y-83557009D02*
X111413095Y-83509390D01*
X111413095Y-83509390D02*
X111317857Y-83461771D01*
X111317857Y-83461771D02*
X111127381Y-83461771D01*
X111127381Y-83461771D02*
X111032143Y-83509390D01*
X111032143Y-83509390D02*
X110984524Y-83557009D01*
X110984524Y-83557009D02*
X110936905Y-83652247D01*
X98929819Y-96738094D02*
X97929819Y-96738094D01*
X97929819Y-96738094D02*
X97929819Y-96499999D01*
X97929819Y-96499999D02*
X97977438Y-96357142D01*
X97977438Y-96357142D02*
X98072676Y-96261904D01*
X98072676Y-96261904D02*
X98167914Y-96214285D01*
X98167914Y-96214285D02*
X98358390Y-96166666D01*
X98358390Y-96166666D02*
X98501247Y-96166666D01*
X98501247Y-96166666D02*
X98691723Y-96214285D01*
X98691723Y-96214285D02*
X98786961Y-96261904D01*
X98786961Y-96261904D02*
X98882200Y-96357142D01*
X98882200Y-96357142D02*
X98929819Y-96499999D01*
X98929819Y-96499999D02*
X98929819Y-96738094D01*
X97929819Y-95833332D02*
X97929819Y-95166666D01*
X97929819Y-95166666D02*
X98929819Y-95595237D01*
X99249819Y-100071904D02*
X98249819Y-100071904D01*
X99249819Y-99500476D02*
X98678390Y-99929047D01*
X98249819Y-99500476D02*
X98821247Y-100071904D01*
X98929819Y-77738094D02*
X97929819Y-77738094D01*
X97929819Y-77738094D02*
X97929819Y-77499999D01*
X97929819Y-77499999D02*
X97977438Y-77357142D01*
X97977438Y-77357142D02*
X98072676Y-77261904D01*
X98072676Y-77261904D02*
X98167914Y-77214285D01*
X98167914Y-77214285D02*
X98358390Y-77166666D01*
X98358390Y-77166666D02*
X98501247Y-77166666D01*
X98501247Y-77166666D02*
X98691723Y-77214285D01*
X98691723Y-77214285D02*
X98786961Y-77261904D01*
X98786961Y-77261904D02*
X98882200Y-77357142D01*
X98882200Y-77357142D02*
X98929819Y-77499999D01*
X98929819Y-77499999D02*
X98929819Y-77738094D01*
X98263152Y-76309523D02*
X98929819Y-76309523D01*
X97882200Y-76547618D02*
X98596485Y-76785713D01*
X98596485Y-76785713D02*
X98596485Y-76166666D01*
X99249819Y-81071904D02*
X98249819Y-81071904D01*
X99249819Y-80500476D02*
X98678390Y-80929047D01*
X98249819Y-80500476D02*
X98821247Y-81071904D01*
X108761667Y-65033200D02*
X108904524Y-65080819D01*
X108904524Y-65080819D02*
X109142619Y-65080819D01*
X109142619Y-65080819D02*
X109237857Y-65033200D01*
X109237857Y-65033200D02*
X109285476Y-64985580D01*
X109285476Y-64985580D02*
X109333095Y-64890342D01*
X109333095Y-64890342D02*
X109333095Y-64795104D01*
X109333095Y-64795104D02*
X109285476Y-64699866D01*
X109285476Y-64699866D02*
X109237857Y-64652247D01*
X109237857Y-64652247D02*
X109142619Y-64604628D01*
X109142619Y-64604628D02*
X108952143Y-64557009D01*
X108952143Y-64557009D02*
X108856905Y-64509390D01*
X108856905Y-64509390D02*
X108809286Y-64461771D01*
X108809286Y-64461771D02*
X108761667Y-64366533D01*
X108761667Y-64366533D02*
X108761667Y-64271295D01*
X108761667Y-64271295D02*
X108809286Y-64176057D01*
X108809286Y-64176057D02*
X108856905Y-64128438D01*
X108856905Y-64128438D02*
X108952143Y-64080819D01*
X108952143Y-64080819D02*
X109190238Y-64080819D01*
X109190238Y-64080819D02*
X109333095Y-64128438D01*
X109666429Y-64080819D02*
X109904524Y-65080819D01*
X109904524Y-65080819D02*
X110095000Y-64366533D01*
X110095000Y-64366533D02*
X110285476Y-65080819D01*
X110285476Y-65080819D02*
X110523572Y-64080819D01*
X111380714Y-64080819D02*
X110904524Y-64080819D01*
X110904524Y-64080819D02*
X110856905Y-64557009D01*
X110856905Y-64557009D02*
X110904524Y-64509390D01*
X110904524Y-64509390D02*
X110999762Y-64461771D01*
X110999762Y-64461771D02*
X111237857Y-64461771D01*
X111237857Y-64461771D02*
X111333095Y-64509390D01*
X111333095Y-64509390D02*
X111380714Y-64557009D01*
X111380714Y-64557009D02*
X111428333Y-64652247D01*
X111428333Y-64652247D02*
X111428333Y-64890342D01*
X111428333Y-64890342D02*
X111380714Y-64985580D01*
X111380714Y-64985580D02*
X111333095Y-65033200D01*
X111333095Y-65033200D02*
X111237857Y-65080819D01*
X111237857Y-65080819D02*
X110999762Y-65080819D01*
X110999762Y-65080819D02*
X110904524Y-65033200D01*
X110904524Y-65033200D02*
X110856905Y-64985580D01*
X117929819Y-96738094D02*
X116929819Y-96738094D01*
X116929819Y-96738094D02*
X116929819Y-96499999D01*
X116929819Y-96499999D02*
X116977438Y-96357142D01*
X116977438Y-96357142D02*
X117072676Y-96261904D01*
X117072676Y-96261904D02*
X117167914Y-96214285D01*
X117167914Y-96214285D02*
X117358390Y-96166666D01*
X117358390Y-96166666D02*
X117501247Y-96166666D01*
X117501247Y-96166666D02*
X117691723Y-96214285D01*
X117691723Y-96214285D02*
X117786961Y-96261904D01*
X117786961Y-96261904D02*
X117882200Y-96357142D01*
X117882200Y-96357142D02*
X117929819Y-96499999D01*
X117929819Y-96499999D02*
X117929819Y-96738094D01*
X117358390Y-95595237D02*
X117310771Y-95690475D01*
X117310771Y-95690475D02*
X117263152Y-95738094D01*
X117263152Y-95738094D02*
X117167914Y-95785713D01*
X117167914Y-95785713D02*
X117120295Y-95785713D01*
X117120295Y-95785713D02*
X117025057Y-95738094D01*
X117025057Y-95738094D02*
X116977438Y-95690475D01*
X116977438Y-95690475D02*
X116929819Y-95595237D01*
X116929819Y-95595237D02*
X116929819Y-95404761D01*
X116929819Y-95404761D02*
X116977438Y-95309523D01*
X116977438Y-95309523D02*
X117025057Y-95261904D01*
X117025057Y-95261904D02*
X117120295Y-95214285D01*
X117120295Y-95214285D02*
X117167914Y-95214285D01*
X117167914Y-95214285D02*
X117263152Y-95261904D01*
X117263152Y-95261904D02*
X117310771Y-95309523D01*
X117310771Y-95309523D02*
X117358390Y-95404761D01*
X117358390Y-95404761D02*
X117358390Y-95595237D01*
X117358390Y-95595237D02*
X117406009Y-95690475D01*
X117406009Y-95690475D02*
X117453628Y-95738094D01*
X117453628Y-95738094D02*
X117548866Y-95785713D01*
X117548866Y-95785713D02*
X117739342Y-95785713D01*
X117739342Y-95785713D02*
X117834580Y-95738094D01*
X117834580Y-95738094D02*
X117882200Y-95690475D01*
X117882200Y-95690475D02*
X117929819Y-95595237D01*
X117929819Y-95595237D02*
X117929819Y-95404761D01*
X117929819Y-95404761D02*
X117882200Y-95309523D01*
X117882200Y-95309523D02*
X117834580Y-95261904D01*
X117834580Y-95261904D02*
X117739342Y-95214285D01*
X117739342Y-95214285D02*
X117548866Y-95214285D01*
X117548866Y-95214285D02*
X117453628Y-95261904D01*
X117453628Y-95261904D02*
X117406009Y-95309523D01*
X117406009Y-95309523D02*
X117358390Y-95404761D01*
X118249819Y-100071904D02*
X117249819Y-100071904D01*
X118249819Y-99500476D02*
X117678390Y-99929047D01*
X117249819Y-99500476D02*
X117821247Y-100071904D01*
X136334819Y-96738094D02*
X135334819Y-96738094D01*
X135334819Y-96738094D02*
X135334819Y-96499999D01*
X135334819Y-96499999D02*
X135382438Y-96357142D01*
X135382438Y-96357142D02*
X135477676Y-96261904D01*
X135477676Y-96261904D02*
X135572914Y-96214285D01*
X135572914Y-96214285D02*
X135763390Y-96166666D01*
X135763390Y-96166666D02*
X135906247Y-96166666D01*
X135906247Y-96166666D02*
X136096723Y-96214285D01*
X136096723Y-96214285D02*
X136191961Y-96261904D01*
X136191961Y-96261904D02*
X136287200Y-96357142D01*
X136287200Y-96357142D02*
X136334819Y-96499999D01*
X136334819Y-96499999D02*
X136334819Y-96738094D01*
X136334819Y-95690475D02*
X136334819Y-95499999D01*
X136334819Y-95499999D02*
X136287200Y-95404761D01*
X136287200Y-95404761D02*
X136239580Y-95357142D01*
X136239580Y-95357142D02*
X136096723Y-95261904D01*
X136096723Y-95261904D02*
X135906247Y-95214285D01*
X135906247Y-95214285D02*
X135525295Y-95214285D01*
X135525295Y-95214285D02*
X135430057Y-95261904D01*
X135430057Y-95261904D02*
X135382438Y-95309523D01*
X135382438Y-95309523D02*
X135334819Y-95404761D01*
X135334819Y-95404761D02*
X135334819Y-95595237D01*
X135334819Y-95595237D02*
X135382438Y-95690475D01*
X135382438Y-95690475D02*
X135430057Y-95738094D01*
X135430057Y-95738094D02*
X135525295Y-95785713D01*
X135525295Y-95785713D02*
X135763390Y-95785713D01*
X135763390Y-95785713D02*
X135858628Y-95738094D01*
X135858628Y-95738094D02*
X135906247Y-95690475D01*
X135906247Y-95690475D02*
X135953866Y-95595237D01*
X135953866Y-95595237D02*
X135953866Y-95404761D01*
X135953866Y-95404761D02*
X135906247Y-95309523D01*
X135906247Y-95309523D02*
X135858628Y-95261904D01*
X135858628Y-95261904D02*
X135763390Y-95214285D01*
X136654819Y-100071904D02*
X135654819Y-100071904D01*
X136654819Y-99500476D02*
X136083390Y-99929047D01*
X135654819Y-99500476D02*
X136226247Y-100071904D01*
X98834819Y-58738094D02*
X97834819Y-58738094D01*
X97834819Y-58738094D02*
X97834819Y-58499999D01*
X97834819Y-58499999D02*
X97882438Y-58357142D01*
X97882438Y-58357142D02*
X97977676Y-58261904D01*
X97977676Y-58261904D02*
X98072914Y-58214285D01*
X98072914Y-58214285D02*
X98263390Y-58166666D01*
X98263390Y-58166666D02*
X98406247Y-58166666D01*
X98406247Y-58166666D02*
X98596723Y-58214285D01*
X98596723Y-58214285D02*
X98691961Y-58261904D01*
X98691961Y-58261904D02*
X98787200Y-58357142D01*
X98787200Y-58357142D02*
X98834819Y-58499999D01*
X98834819Y-58499999D02*
X98834819Y-58738094D01*
X98834819Y-57214285D02*
X98834819Y-57785713D01*
X98834819Y-57499999D02*
X97834819Y-57499999D01*
X97834819Y-57499999D02*
X97977676Y-57595237D01*
X97977676Y-57595237D02*
X98072914Y-57690475D01*
X98072914Y-57690475D02*
X98120533Y-57785713D01*
X99154819Y-62071904D02*
X98154819Y-62071904D01*
X99154819Y-61500476D02*
X98583390Y-61929047D01*
X98154819Y-61500476D02*
X98726247Y-62071904D01*
X89880714Y-55854819D02*
X89880714Y-54854819D01*
X89880714Y-54854819D02*
X90118809Y-54854819D01*
X90118809Y-54854819D02*
X90261666Y-54902438D01*
X90261666Y-54902438D02*
X90356904Y-54997676D01*
X90356904Y-54997676D02*
X90404523Y-55092914D01*
X90404523Y-55092914D02*
X90452142Y-55283390D01*
X90452142Y-55283390D02*
X90452142Y-55426247D01*
X90452142Y-55426247D02*
X90404523Y-55616723D01*
X90404523Y-55616723D02*
X90356904Y-55711961D01*
X90356904Y-55711961D02*
X90261666Y-55807200D01*
X90261666Y-55807200D02*
X90118809Y-55854819D01*
X90118809Y-55854819D02*
X89880714Y-55854819D01*
X91404523Y-55854819D02*
X90833095Y-55854819D01*
X91118809Y-55854819D02*
X91118809Y-54854819D01*
X91118809Y-54854819D02*
X91023571Y-54997676D01*
X91023571Y-54997676D02*
X90928333Y-55092914D01*
X90928333Y-55092914D02*
X90833095Y-55140533D01*
X91785476Y-54950057D02*
X91833095Y-54902438D01*
X91833095Y-54902438D02*
X91928333Y-54854819D01*
X91928333Y-54854819D02*
X92166428Y-54854819D01*
X92166428Y-54854819D02*
X92261666Y-54902438D01*
X92261666Y-54902438D02*
X92309285Y-54950057D01*
X92309285Y-54950057D02*
X92356904Y-55045295D01*
X92356904Y-55045295D02*
X92356904Y-55140533D01*
X92356904Y-55140533D02*
X92309285Y-55283390D01*
X92309285Y-55283390D02*
X91737857Y-55854819D01*
X91737857Y-55854819D02*
X92356904Y-55854819D01*
X117929819Y-77738094D02*
X116929819Y-77738094D01*
X116929819Y-77738094D02*
X116929819Y-77499999D01*
X116929819Y-77499999D02*
X116977438Y-77357142D01*
X116977438Y-77357142D02*
X117072676Y-77261904D01*
X117072676Y-77261904D02*
X117167914Y-77214285D01*
X117167914Y-77214285D02*
X117358390Y-77166666D01*
X117358390Y-77166666D02*
X117501247Y-77166666D01*
X117501247Y-77166666D02*
X117691723Y-77214285D01*
X117691723Y-77214285D02*
X117786961Y-77261904D01*
X117786961Y-77261904D02*
X117882200Y-77357142D01*
X117882200Y-77357142D02*
X117929819Y-77499999D01*
X117929819Y-77499999D02*
X117929819Y-77738094D01*
X116929819Y-76261904D02*
X116929819Y-76738094D01*
X116929819Y-76738094D02*
X117406009Y-76785713D01*
X117406009Y-76785713D02*
X117358390Y-76738094D01*
X117358390Y-76738094D02*
X117310771Y-76642856D01*
X117310771Y-76642856D02*
X117310771Y-76404761D01*
X117310771Y-76404761D02*
X117358390Y-76309523D01*
X117358390Y-76309523D02*
X117406009Y-76261904D01*
X117406009Y-76261904D02*
X117501247Y-76214285D01*
X117501247Y-76214285D02*
X117739342Y-76214285D01*
X117739342Y-76214285D02*
X117834580Y-76261904D01*
X117834580Y-76261904D02*
X117882200Y-76309523D01*
X117882200Y-76309523D02*
X117929819Y-76404761D01*
X117929819Y-76404761D02*
X117929819Y-76642856D01*
X117929819Y-76642856D02*
X117882200Y-76738094D01*
X117882200Y-76738094D02*
X117834580Y-76785713D01*
X118249819Y-81071904D02*
X117249819Y-81071904D01*
X118249819Y-80500476D02*
X117678390Y-80929047D01*
X117249819Y-80500476D02*
X117821247Y-81071904D01*
%TO.C,D16*%
D11*
X125445000Y-94125000D02*
X132745000Y-94125000D01*
X125445000Y-97150000D02*
X125445000Y-94125000D01*
X125445000Y-97150000D02*
X126170000Y-97875000D01*
X132745000Y-94125000D02*
X132745000Y-97875000D01*
X132745000Y-97875000D02*
X126170000Y-97875000D01*
X126370000Y-97450000D02*
X126520000Y-97650000D01*
X126220000Y-97650000D01*
X126370000Y-97450000D01*
G36*
X126520000Y-97650000D02*
G01*
X126220000Y-97650000D01*
X126370000Y-97450000D01*
X126520000Y-97650000D01*
G37*
%TO.C,D17*%
X113320000Y-94550000D02*
X113170000Y-94350000D01*
X113470000Y-94350000D01*
X113320000Y-94550000D01*
G36*
X113320000Y-94550000D02*
G01*
X113170000Y-94350000D01*
X113470000Y-94350000D01*
X113320000Y-94550000D01*
G37*
X114245000Y-97875000D02*
X106945000Y-97875000D01*
X114245000Y-94850000D02*
X114245000Y-97875000D01*
X114245000Y-94850000D02*
X113520000Y-94125000D01*
X106945000Y-97875000D02*
X106945000Y-94125000D01*
X106945000Y-94125000D02*
X113520000Y-94125000D01*
%TO.C,D18*%
X88275000Y-97450000D02*
X88425000Y-97650000D01*
X88125000Y-97650000D01*
X88275000Y-97450000D01*
G36*
X88425000Y-97650000D02*
G01*
X88125000Y-97650000D01*
X88275000Y-97450000D01*
X88425000Y-97650000D01*
G37*
X94650000Y-97875000D02*
X88075000Y-97875000D01*
X94650000Y-94125000D02*
X94650000Y-97875000D01*
X87350000Y-97150000D02*
X88075000Y-97875000D01*
X87350000Y-97150000D02*
X87350000Y-94125000D01*
X87350000Y-94125000D02*
X94650000Y-94125000D01*
%TO.C,D13*%
X126370000Y-78450000D02*
X126520000Y-78650000D01*
X126220000Y-78650000D01*
X126370000Y-78450000D01*
G36*
X126520000Y-78650000D02*
G01*
X126220000Y-78650000D01*
X126370000Y-78450000D01*
X126520000Y-78650000D01*
G37*
X132745000Y-78875000D02*
X126170000Y-78875000D01*
X132745000Y-75125000D02*
X132745000Y-78875000D01*
X125445000Y-78150000D02*
X126170000Y-78875000D01*
X125445000Y-78150000D02*
X125445000Y-75125000D01*
X125445000Y-75125000D02*
X132745000Y-75125000D01*
%TO.C,D14*%
X114150000Y-78875000D02*
X106850000Y-78875000D01*
X114150000Y-75850000D02*
X114150000Y-78875000D01*
X114150000Y-75850000D02*
X113425000Y-75125000D01*
X106850000Y-78875000D02*
X106850000Y-75125000D01*
X106850000Y-75125000D02*
X113425000Y-75125000D01*
X113225000Y-75550000D02*
X113075000Y-75350000D01*
X113375000Y-75350000D01*
X113225000Y-75550000D01*
G36*
X113225000Y-75550000D02*
G01*
X113075000Y-75350000D01*
X113375000Y-75350000D01*
X113225000Y-75550000D01*
G37*
%TO.C,D15*%
X88275000Y-78450000D02*
X88425000Y-78650000D01*
X88125000Y-78650000D01*
X88275000Y-78450000D01*
G36*
X88425000Y-78650000D02*
G01*
X88125000Y-78650000D01*
X88275000Y-78450000D01*
X88425000Y-78650000D01*
G37*
X94650000Y-78875000D02*
X88075000Y-78875000D01*
X94650000Y-75125000D02*
X94650000Y-78875000D01*
X87350000Y-78150000D02*
X88075000Y-78875000D01*
X87350000Y-78150000D02*
X87350000Y-75125000D01*
X87350000Y-75125000D02*
X94650000Y-75125000D01*
%TO.C,D10*%
X126370000Y-59450000D02*
X126520000Y-59650000D01*
X126220000Y-59650000D01*
X126370000Y-59450000D01*
G36*
X126520000Y-59650000D02*
G01*
X126220000Y-59650000D01*
X126370000Y-59450000D01*
X126520000Y-59650000D01*
G37*
X132745000Y-59875000D02*
X126170000Y-59875000D01*
X132745000Y-56125000D02*
X132745000Y-59875000D01*
X125445000Y-59150000D02*
X126170000Y-59875000D01*
X125445000Y-59150000D02*
X125445000Y-56125000D01*
X125445000Y-56125000D02*
X132745000Y-56125000D01*
%TO.C,D11*%
X112820000Y-56550000D02*
X112670000Y-56350000D01*
X112970000Y-56350000D01*
X112820000Y-56550000D01*
G36*
X112820000Y-56550000D02*
G01*
X112670000Y-56350000D01*
X112970000Y-56350000D01*
X112820000Y-56550000D01*
G37*
X113745000Y-59875000D02*
X106445000Y-59875000D01*
X113745000Y-56850000D02*
X113745000Y-59875000D01*
X113745000Y-56850000D02*
X113020000Y-56125000D01*
X106445000Y-59875000D02*
X106445000Y-56125000D01*
X106445000Y-56125000D02*
X113020000Y-56125000D01*
%TO.C,SW1*%
X97890000Y-60525000D02*
X83920000Y-60525000D01*
X97890000Y-46555000D02*
X97890000Y-60525000D01*
X83920000Y-60525000D02*
X83920000Y-46555000D01*
X83920000Y-46555000D02*
X97890000Y-46555000D01*
%TO.C,SW3*%
X84110000Y-84515000D02*
X98080000Y-84515000D01*
X84110000Y-98485000D02*
X84110000Y-84515000D01*
X98080000Y-84515000D02*
X98080000Y-98485000D01*
X98080000Y-98485000D02*
X84110000Y-98485000D01*
%TO.C,D6*%
X136880000Y-78280000D02*
X139120000Y-78280000D01*
X136880000Y-78400000D02*
X139120000Y-78400000D01*
X136880000Y-78520000D02*
X139120000Y-78520000D01*
X138000000Y-74230000D02*
X138000000Y-74880000D01*
X138000000Y-79770000D02*
X138000000Y-79120000D01*
X136880000Y-74880000D02*
X139120000Y-74880000D01*
X139120000Y-79120000D01*
X136880000Y-79120000D01*
X136880000Y-74880000D01*
%TO.C,SW7*%
X122110000Y-46555000D02*
X136080000Y-46555000D01*
X122110000Y-60525000D02*
X122110000Y-46555000D01*
X136080000Y-46555000D02*
X136080000Y-60525000D01*
X136080000Y-60525000D02*
X122110000Y-60525000D01*
%TO.C,D3*%
X136880000Y-59280000D02*
X139120000Y-59280000D01*
X136880000Y-59400000D02*
X139120000Y-59400000D01*
X136880000Y-59520000D02*
X139120000Y-59520000D01*
X138000000Y-55230000D02*
X138000000Y-55880000D01*
X138000000Y-60770000D02*
X138000000Y-60120000D01*
X136880000Y-55880000D02*
X139120000Y-55880000D01*
X139120000Y-60120000D01*
X136880000Y-60120000D01*
X136880000Y-55880000D01*
%TO.C,D2*%
X118380000Y-59280000D02*
X120620000Y-59280000D01*
X118380000Y-59400000D02*
X120620000Y-59400000D01*
X118380000Y-59520000D02*
X120620000Y-59520000D01*
X119500000Y-55230000D02*
X119500000Y-55880000D01*
X119500000Y-60770000D02*
X119500000Y-60120000D01*
X118380000Y-55880000D02*
X120620000Y-55880000D01*
X120620000Y-60120000D01*
X118380000Y-60120000D01*
X118380000Y-55880000D01*
%TO.C,SW9*%
X122110000Y-84515000D02*
X136080000Y-84515000D01*
X122110000Y-98485000D02*
X122110000Y-84515000D01*
X136080000Y-84515000D02*
X136080000Y-98485000D01*
X136080000Y-98485000D02*
X122110000Y-98485000D01*
%TO.C,SW2*%
X83975000Y-65515000D02*
X97945000Y-65515000D01*
X83975000Y-79485000D02*
X83975000Y-65515000D01*
X97945000Y-65515000D02*
X97945000Y-79485000D01*
X97945000Y-79485000D02*
X83975000Y-79485000D01*
%TO.C,SW8*%
X122030000Y-65515000D02*
X136000000Y-65515000D01*
X122030000Y-79485000D02*
X122030000Y-65515000D01*
X136000000Y-65515000D02*
X136000000Y-79485000D01*
X136000000Y-79485000D02*
X122030000Y-79485000D01*
%TO.C,SW4*%
X103110000Y-46555000D02*
X117080000Y-46555000D01*
X103110000Y-60525000D02*
X103110000Y-46555000D01*
X117080000Y-46555000D02*
X117080000Y-60525000D01*
X117080000Y-60525000D02*
X103110000Y-60525000D01*
%TO.C,SW10*%
X71700000Y-28500000D02*
X72300000Y-28500000D01*
X72000000Y-28800000D02*
X71700000Y-28500000D01*
X72300000Y-28500000D02*
X72000000Y-28800000D01*
X73400000Y-26700000D02*
X73400000Y-38500000D01*
X77500000Y-26700000D02*
X73400000Y-26700000D01*
X77500000Y-38500000D02*
X73400000Y-38500000D01*
X79000000Y-32600000D02*
X80000000Y-32600000D01*
X79500000Y-32100000D02*
X79500000Y-33100000D01*
X81500000Y-26700000D02*
X85600000Y-26700000D01*
X85600000Y-26700000D02*
X85600000Y-29100000D01*
X85600000Y-31300000D02*
X85600000Y-33900000D01*
X85600000Y-36100000D02*
X85600000Y-38500000D01*
X85600000Y-38500000D02*
X81500000Y-38500000D01*
X82500000Y-32600000D02*
G75*
G02*
X76500000Y-32600000I-3000000J0D01*
G01*
X76500000Y-32600000D02*
G75*
G02*
X82500000Y-32600000I3000000J0D01*
G01*
%TO.C,U2*%
X112500000Y-37690000D02*
X113880000Y-37690000D01*
X113880000Y-36310000D02*
X113880000Y-37690000D01*
X111000000Y-26500000D02*
X149000000Y-26500000D01*
X149000000Y-38500000D01*
X111000000Y-38500000D01*
X111000000Y-26500000D01*
%TO.C,SW6*%
X103190000Y-84515000D02*
X117160000Y-84515000D01*
X103190000Y-98485000D02*
X103190000Y-84515000D01*
X117160000Y-84515000D02*
X117160000Y-98485000D01*
X117160000Y-98485000D02*
X103190000Y-98485000D01*
%TO.C,D7*%
X99475000Y-97280000D02*
X101715000Y-97280000D01*
X99475000Y-97400000D02*
X101715000Y-97400000D01*
X99475000Y-97520000D02*
X101715000Y-97520000D01*
X100595000Y-93230000D02*
X100595000Y-93880000D01*
X100595000Y-98770000D02*
X100595000Y-98120000D01*
X99475000Y-93880000D02*
X101715000Y-93880000D01*
X101715000Y-98120000D01*
X99475000Y-98120000D01*
X99475000Y-93880000D01*
%TO.C,D4*%
X99475000Y-78280000D02*
X101715000Y-78280000D01*
X99475000Y-78400000D02*
X101715000Y-78400000D01*
X99475000Y-78520000D02*
X101715000Y-78520000D01*
X100595000Y-74230000D02*
X100595000Y-74880000D01*
X100595000Y-79770000D02*
X100595000Y-79120000D01*
X99475000Y-74880000D02*
X101715000Y-74880000D01*
X101715000Y-79120000D01*
X99475000Y-79120000D01*
X99475000Y-74880000D01*
%TO.C,SW5*%
X103110000Y-65515000D02*
X117080000Y-65515000D01*
X103110000Y-79485000D02*
X103110000Y-65515000D01*
X117080000Y-65515000D02*
X117080000Y-79485000D01*
X117080000Y-79485000D02*
X103110000Y-79485000D01*
%TO.C,D8*%
X118475000Y-97280000D02*
X120715000Y-97280000D01*
X118475000Y-97400000D02*
X120715000Y-97400000D01*
X118475000Y-97520000D02*
X120715000Y-97520000D01*
X119595000Y-93230000D02*
X119595000Y-93880000D01*
X119595000Y-98770000D02*
X119595000Y-98120000D01*
X118475000Y-93880000D02*
X120715000Y-93880000D01*
X120715000Y-98120000D01*
X118475000Y-98120000D01*
X118475000Y-93880000D01*
%TO.C,D9*%
X136880000Y-97280000D02*
X139120000Y-97280000D01*
X136880000Y-97400000D02*
X139120000Y-97400000D01*
X136880000Y-97520000D02*
X139120000Y-97520000D01*
X138000000Y-93230000D02*
X138000000Y-93880000D01*
X138000000Y-98770000D02*
X138000000Y-98120000D01*
X136880000Y-93880000D02*
X139120000Y-93880000D01*
X139120000Y-98120000D01*
X136880000Y-98120000D01*
X136880000Y-93880000D01*
%TO.C,D1*%
X99380000Y-59280000D02*
X101620000Y-59280000D01*
X99380000Y-59400000D02*
X101620000Y-59400000D01*
X99380000Y-59520000D02*
X101620000Y-59520000D01*
X100500000Y-55230000D02*
X100500000Y-55880000D01*
X100500000Y-60770000D02*
X100500000Y-60120000D01*
X99380000Y-55880000D02*
X101620000Y-55880000D01*
X101620000Y-60120000D01*
X99380000Y-60120000D01*
X99380000Y-55880000D01*
%TO.C,D12*%
X87445000Y-56125000D02*
X94745000Y-56125000D01*
X87445000Y-59150000D02*
X87445000Y-56125000D01*
X87445000Y-59150000D02*
X88170000Y-59875000D01*
X94745000Y-56125000D02*
X94745000Y-59875000D01*
X94745000Y-59875000D02*
X88170000Y-59875000D01*
X88370000Y-59450000D02*
X88520000Y-59650000D01*
X88220000Y-59650000D01*
X88370000Y-59450000D01*
G36*
X88520000Y-59650000D02*
G01*
X88220000Y-59650000D01*
X88370000Y-59450000D01*
X88520000Y-59650000D01*
G37*
%TO.C,D5*%
X118475000Y-78280000D02*
X120715000Y-78280000D01*
X118475000Y-78400000D02*
X120715000Y-78400000D01*
X118475000Y-78520000D02*
X120715000Y-78520000D01*
X119595000Y-74230000D02*
X119595000Y-74880000D01*
X119595000Y-79770000D02*
X119595000Y-79120000D01*
X118475000Y-74880000D02*
X120715000Y-74880000D01*
X120715000Y-79120000D01*
X118475000Y-79120000D01*
X118475000Y-74880000D01*
%TD*%
M02*
